<!-- icon666.com - MILLIONS vector ICONS FREE --><svg fill="none" viewBox="0 0 24 24" xmlns="http://www.w3.org/2000/svg" xmlns:xlink="http://www.w3.org/1999/xlink"><linearGradient id="paint0_linear_543_4933" gradientUnits="userSpaceOnUse" x1="12.024" x2="12.024" y1="2.25" y2="21.75"><stop offset="0" stop-color="#e2b0ff"></stop><stop offset="1" stop-color="#9f44d3"></stop>
</linearGradient>
<g fill="url(#paint0_linear_543_4933)"><path d="m12.3999 21.75c-2.58586 0-5.06581-1.0272-6.89429-2.8557s-2.85571-4.3084-2.85571-6.8943c0-2.58586 1.02723-5.06581 2.85571-6.89429s4.30843-2.85571 6.89429-2.85571c.1989 0 .3897.07902.5303.21967.1407.14065.2197.33142.2197.53033s-.079.38968-.2197.53033c-.1406.14065-.3314.21967-.5303.21967-2.188 0-4.28645.86919-5.83363 2.41637-1.54717 1.54717-2.41637 3.64559-2.41637 5.83363 0 2.188.8692 4.2865 2.41637 5.8336 1.54718 1.5472 3.64563 2.4164 5.83363 2.4164 1.0932.0036 2.1761-.2123 3.1844-.6349 1.0083-.4225 1.9215-1.0432 2.6856-1.8251.1406-.1419.3317-.2221.5315-.2231.1997-.0009.3916.0775.5335.2181s.2221.3317.2231.5315c.0009.1997-.0775.3916-.2181.5335-.9051.9215-1.9853 1.6528-3.1771 2.1508-1.1919.4981-2.4712.7528-3.7629.7492z" fill="url(#paint0_linear_543_4933)" style="fill: #f5e9e1;"></path><path d="m12.0999 15.45c-.0985.0005-.1962-.0188-.2872-.0565-.091-.0378-.1736-.0934-.2428-.1635l-4-4c-.13248-.1422-.2046-.3302-.20118-.5245.00343-.1943.08215-.3797.21956-.5171s.3228-.21615.5171-.21958c.1943-.00342.38235.06868.52452.20118l3.47 3.47 8-8c.0687-.07369.1515-.13279.2435-.17378s.1913-.06304.292-.06481c.1007-.00178.2007.01675.2941.05447s.1782.09386.2494.16508.1274.15605.1651.24944.0563.19342.0545.29412-.0238.20002-.0648.29202-.1001.1748-.1738.24346l-8.5 8.5c-.0696.0798-.1558.1435-.2525.1867-.0967.0431-.2016.0647-.3075.0633z" fill="url(#paint0_linear_543_4933)" style="fill: #f5e9e1;"></path></g></svg>