<!-- icon666.com - MILLIONS vector ICONS FREE --><svg id="Layer_1" viewBox="0 0 512 512" xmlns="http://www.w3.org/2000/svg" data-name="Layer 1"><path d="m294.046 104.415-73.124 63.629v-127.251zm33.122 7.609 92.843-80.79h-185.711l92.864 80.79zm-5.265 16.64-15.668-13.639-71.935 62.575h185.711l-71.931-62.575-15.668 13.639a8.011 8.011 0 0 1 -10.509 0zm111.49 39.38-73.117-63.629 73.117-63.622zm-208.949 25.563h205.441a19.533 19.533 0 0 0 19.515-19.507v-139.358a19.531 19.531 0 0 0 -19.512-19.5h-205.444a19.537 19.537 0 0 0 -19.518 19.5v139.358a19.538 19.538 0 0 0 19.518 19.511zm-114.683 252.952a7.959 7.959 0 0 1 7.952-8h.093a8 8 0 1 1 -8.045 8zm373.322-184.951-100.409 99.009a43.008 43.008 0 0 1 -31.593 12.96h-122.314a58.931 58.931 0 0 0 -44.153 18.9l-10.8 11.331-82.3-79.6c24.191-46.675 84.391-70.624 130.437-51.333a8.032 8.032 0 0 0 3.094.621h111.568a21.584 21.584 0 1 1 0 43.167h-88.735a8 8 0 0 0 0 16h88.735a37.581 37.581 0 0 0 32.944-55.663l93.564-54.02c8.681-5.008 23.47-1.7 29.85 6.68 8.4 11.017-2.586 24.742-9.888 31.943zm-365.149 215.836 52.677-54.47-98.611-95.386-52.684 54.47 98.616 95.386zm337.192-268.312-96.343 55.627a37.332 37.332 0 0 0 -22.17-7.266h-110c-51.754-20.655-118.084 4.766-147.019 55.184l-2.222-2.15a7.995 7.995 0 0 0 -11.31.186l-63.804 65.972a7.987 7.987 0 0 0 .178 11.315l110.118 106.52a8.053 8.053 0 0 0 5.559 2.243.979.979 0 0 0 .143-.007 8 8 0 0 0 5.608-2.429l63.822-65.973a8 8 0 0 0 -.193-11.31l-2.179-2.107 10.886-11.424a43.48 43.48 0 0 1 32.572-13.939h122.309a59.041 59.041 0 0 0 42.831-17.569l100.409-99.005c9.6-9.474 15.361-19.062 17.111-28.493a30.359 30.359 0 0 0 -5.73-24.541c-11.274-14.814-34.915-19.879-50.576-10.834z" fill="#39a4a6" fill-rule="evenodd"></path></svg>