<!-- icon666.com - MILLIONS vector ICONS FREE --><svg id="color" enable-background="new 0 0 24 24" viewBox="0 0 24 24" xmlns="http://www.w3.org/2000/svg"><path d="m21 1h-18c-1.654 0-3 1.346-3 3v16c0 1.654 1.346 3 3 3h18c1.654 0 3-1.346 3-3v-16c0-1.654-1.346-3-3-3z" fill="#607d8b"></path><path d="m21 21h-18c-.551 0-1-.448-1-1v-14h20v14c0 .552-.449 1-1 1z" fill="#fff"></path><path d="m18.744 17.406-5.28-8.579c-.301-.51-.861-.827-1.464-.827s-1.163.317-1.456.815l-5.272 8.565c-.178.265-.272.581-.272.915 0 .94.768 1.705 1.712 1.705h10.576c.944 0 1.712-.765 1.712-1.705 0-.334-.094-.65-.256-.889z" fill="#ffc107"></path><path d="m12 18.5c-.553 0-1-.448-1-1s.447-1 1-1 1 .448 1 1-.447 1-1 1z" fill="#fff"></path><path d="m13 14.5c0 .552-.447 1-1 1s-1-.448-1-1v-3c0-.552.447-1 1-1s1 .448 1 1z" fill="#fff"></path><path d="m12 1h-9c-1.654 0-3 1.346-3 3v16c0 1.654 1.346 3 3 3h9v-2h-9c-.551 0-1-.448-1-1v-14h10z" fill="#546d79"></path><path d="m12 6h-10v14c0 .552.449 1 1 1h9v-1h-5.288c-.944 0-1.712-.765-1.712-1.705 0-.335.094-.651.272-.916l5.272-8.565c.293-.497.853-.814 1.456-.814z" fill="#dedede"></path><path d="m12 8c-.603 0-1.163.317-1.456.815l-5.272 8.565c-.178.265-.272.581-.272.915 0 .94.768 1.705 1.712 1.705h5.288v-1.5c-.553 0-1-.448-1-1s.447-1 1-1v-1c-.553 0-1-.448-1-1v-3c0-.552.447-1 1-1z" fill="#dea806"></path><g fill="#dedede"><path d="m12 16.5c-.553 0-1 .448-1 1s.447 1 1 1z"></path><path d="m12 10.5c-.553 0-1 .448-1 1v3c0 .552.447 1 1 1z"></path></g></svg>