<svg width="31.009766" height="25.636353" viewBox="0 0 31.0098 25.6364" fill="none" xmlns="http://www.w3.org/2000/svg" xmlns:xlink="http://www.w3.org/1999/xlink">
	<desc>
			Created with Pixso.
	</desc>
	<defs/>
	<path id="path" d="M6.48 24.13L24.52 24.13C26.26 24.13 27.14 24.13 27.8 23.78C28.39 23.47 28.86 22.97 29.16 22.37C29.5 21.67 29.5 20.77 29.5 18.96L29.5 6.67C29.5 4.86 29.5 3.95 29.16 3.26C28.86 2.65 28.39 2.16 27.8 1.85C27.14 1.5 26.26 1.5 24.52 1.5L6.48 1.5C4.74 1.5 3.86 1.5 3.2 1.85C2.61 2.16 2.14 2.65 1.84 3.26C1.5 3.95 1.5 4.86 1.5 6.67L1.5 18.96C1.5 20.77 1.5 21.67 1.84 22.37C2.14 22.97 2.61 23.47 3.2 23.78C3.86 24.13 4.74 24.13 6.48 24.13ZM28.74 5.07L28.75 5.05C29.48 4.63 30.38 4.87 30.8 5.6C31.22 6.32 30.98 7.22 30.25 7.64L30.22 7.64L28.74 5.07ZM0.78 7.64L0.75 7.64C0.02 7.22 -0.22 6.32 0.2 5.6C0.62 4.87 1.52 4.63 2.25 5.05L2.26 5.07L0.78 7.64Z" fill="#000000" fill-opacity="0" fill-rule="nonzero"/>
	<path id="path" d="M29.5 6.35L23.96 9.54C20.87 11.33 19.33 12.22 17.69 12.57C16.25 12.88 14.75 12.88 13.31 12.57C11.67 12.22 10.13 11.33 7.04 9.54L1.5 6.35M24.52 24.13C26.26 24.13 27.14 24.13 27.8 23.78C28.39 23.47 28.86 22.97 29.16 22.37C29.5 21.67 29.5 20.77 29.5 18.96L29.5 6.67C29.5 4.86 29.5 3.95 29.16 3.26C28.86 2.65 28.39 2.16 27.8 1.85C27.14 1.5 26.26 1.5 24.52 1.5L6.48 1.5C4.74 1.5 3.86 1.5 3.2 1.85C2.61 2.16 2.14 2.65 1.84 3.26C1.5 3.95 1.5 4.86 1.5 6.67L1.5 18.96C1.5 20.77 1.5 21.67 1.84 22.37C2.14 22.97 2.61 23.47 3.2 23.78C3.86 24.13 4.74 24.13 6.48 24.13L24.52 24.13Z" stroke="#000000" stroke-opacity="1.000000" stroke-width="3.000000" stroke-linejoin="round" stroke-linecap="round"/>
</svg>
