<svg width="37.364258" height="101.408829" viewBox="0 0 37.3643 101.409" fill="none" xmlns="http://www.w3.org/2000/svg" xmlns:xlink="http://www.w3.org/1999/xlink">
	<desc>
			Created with Pixso.
	</desc>
	<defs/>
	<path id="path" d="M36.56 50.8C35.38 51.38 34.22 51.97 33.11 52.66C32.84 52.83 32.58 53 32.32 53.17C32.07 53.34 31.82 53.5 31.58 53.66C31.03 54 30.51 54.29 30.02 54.41C29.07 54.65 28.28 54.28 27.53 53.94L27.68 53.87C27.14 55.46 26.57 57.1 25.61 58.05C24.63 59 23.26 59.26 21.93 59.51C21.89 59.52 21.84 59.51 21.82 59.47C21.79 59.44 21.79 59.39 21.81 59.35C22.31 58.34 22.79 57.37 22.79 56.45C22.79 56.16 22.75 55.89 22.64 55.61C22.18 54.47 20.62 53.4 17.83 52.84C15.03 52.28 11.09 52.25 9.2 53.95C8.21 54.84 7.76 56.2 7.76 57.59C7.76 58.86 8.14 60.14 8.81 61.07C10.23 63.02 12.97 63.48 14.59 63.02C16.1 62.59 16.63 61.36 16.63 60.41C16.63 60.36 16.63 60.31 16.62 60.26C16.57 59.3 15.96 58.72 15.31 58.11C15.27 58.08 15.26 58.02 15.28 57.98C15.3 57.94 15.35 57.91 15.39 57.91C17.12 58 18.93 58.08 19.97 59.36C20.58 60.11 20.91 61.24 20.91 62.37C20.91 63.19 20.74 64.01 20.36 64.7C19.45 66.35 17.36 67.21 15.33 68.04L15.38 67.87C15.8 68.52 16.24 69.18 16.55 70.21C16.62 70.48 16.7 70.78 16.77 71.08C16.84 71.4 16.92 71.73 17.02 72.05C17.17 72.57 17.36 73.05 17.64 73.42C18.25 74.24 19.33 74.55 20.45 74.88L20.31 74.97C20.52 73.89 20.73 72.75 21.56 72.19C22.39 71.64 23.83 71.68 24.62 72.73C25.04 73.28 25.28 74.11 25.28 74.93C25.28 75.64 25.1 76.35 24.71 76.88C23.85 78.03 22.01 78.26 20.58 77.95C19.14 77.64 18.07 76.75 17.03 75.9L17.22 75.82C17.06 77.69 16.89 79.59 14.95 81.72C13.99 82.78 12.59 83.89 11.21 84.99C9.82 86.1 8.44 87.2 7.5 88.23C7.5 88.23 7.48 88.26 7.48 88.26C5.61 90.32 5.5 92.13 5.39 93.97L5.27 93.85C6.59 93.79 8 93.71 8.86 94.63C9.38 95.19 9.69 96.11 9.69 97.03C9.69 97.61 9.57 98.21 9.28 98.72C8.54 100.04 6.78 100.78 5.19 100.69C3.59 100.61 2.15 99.69 1.34 98.22C0.94 97.48 0.7 96.6 0.7 95.61C0.7 94.64 0.92 93.57 1.45 92.41C2.51 90.08 4.8 87.42 7.06 84.77L7.1 84.95C5.83 84.37 4.51 83.76 3.96 82.51C3.76 82.06 3.67 81.53 3.67 80.99C3.67 80.04 3.96 79.04 4.54 78.38C5.45 77.34 7.02 77.18 8.01 77.43C9.02 77.68 9.45 78.38 9.6 79.11C9.65 79.34 9.67 79.58 9.67 79.82C9.67 80.32 9.59 80.84 9.51 81.34L9.34 81.22C10.7 80.58 12 79.97 12.68 78.99C13.35 78.01 13.41 76.65 13.46 75.25L13.62 75.36L13.6 75.37C12.15 75.95 10.66 76.55 9.24 76.32C7.81 76.1 6.47 75.04 5.16 74.01C5.13 73.98 5.11 73.93 5.12 73.88C5.14 73.84 5.18 73.8 5.23 73.8C7.45 73.69 9.53 73.56 10.05 72.39C10.14 72.17 10.19 71.91 10.19 71.61C10.19 70.32 9.33 68.47 8.43 66.94C8.13 66.42 7.83 65.94 7.53 65.48C7.25 65.04 6.98 64.61 6.73 64.17C6.26 63.38 5.85 62.55 5.55 61.57C5.21 60.44 5.01 59.11 5.01 57.82C5.01 56.71 5.16 55.62 5.48 54.72C6.19 52.75 7.73 51.66 9.24 50.59C9.29 50.55 9.36 50.56 9.4 50.61C9.44 50.67 9.43 50.74 9.37 50.77C7.86 51.85 6.38 52.91 5.7 54.8C5.39 55.67 5.24 56.73 5.24 57.82C5.24 59.09 5.44 60.4 5.77 61.5C6.07 62.46 6.47 63.27 6.92 64.06C7.18 64.49 7.45 64.92 7.73 65.36C8.02 65.82 8.33 66.3 8.63 66.82C9.52 68.35 10.42 70.25 10.42 71.61C10.42 71.93 10.37 72.22 10.26 72.48C9.67 73.82 7.38 73.92 5.24 74.03L5.31 73.83C6.63 74.87 7.92 75.88 9.28 76.1C10.62 76.31 12.04 75.74 13.51 75.15L13.54 75.14C13.57 75.13 13.61 75.13 13.64 75.16C13.68 75.18 13.7 75.21 13.69 75.25C13.64 76.64 13.59 78.07 12.87 79.12C12.15 80.16 10.77 80.8 9.44 81.42C9.4 81.44 9.36 81.44 9.32 81.41C9.29 81.39 9.27 81.34 9.28 81.3C9.36 80.8 9.44 80.3 9.44 79.82C9.44 79.59 9.42 79.37 9.38 79.16C9.24 78.49 8.86 77.88 7.95 77.65C7.01 77.41 5.55 77.58 4.71 78.53C4.18 79.14 3.9 80.07 3.9 80.99C3.9 81.5 3.99 82 4.17 82.42C4.68 83.57 5.91 84.15 7.2 84.74C7.22 84.76 7.25 84.79 7.26 84.82C7.27 84.86 7.26 84.9 7.23 84.92C4.96 87.58 2.71 90.22 1.66 92.51C1.15 93.63 0.93 94.67 0.93 95.61C0.93 96.56 1.16 97.4 1.54 98.11C2.31 99.51 3.69 100.38 5.2 100.46C6.73 100.55 8.4 99.83 9.08 98.61C9.34 98.14 9.46 97.58 9.46 97.03C9.46 96.15 9.16 95.3 8.69 94.79C7.91 93.96 6.64 94.02 5.28 94.08C5.25 94.08 5.21 94.07 5.19 94.05C5.17 94.02 5.16 93.99 5.16 93.96C5.27 92.11 5.39 90.23 7.3 88.11C7.31 88.1 7.33 88.08 7.33 88.08C8.29 87.03 9.68 85.92 11.06 84.81C12.45 83.71 13.83 82.61 14.78 81.57C16.67 79.49 16.83 77.66 16.99 75.8C17 75.75 17.02 75.72 17.06 75.7C17.1 75.68 17.15 75.69 17.18 75.72C18.23 76.58 19.25 77.43 20.63 77.73C22.02 78.03 23.74 77.78 24.52 76.74C24.88 76.26 25.05 75.6 25.05 74.93C25.05 74.15 24.82 73.37 24.44 72.87C23.72 71.93 22.43 71.89 21.69 72.39C20.96 72.88 20.75 73.9 20.54 75.01C20.53 75.04 20.51 75.07 20.48 75.08C20.45 75.1 20.42 75.11 20.39 75.1C19.29 74.78 18.13 74.45 17.45 73.56C17.15 73.16 16.95 72.64 16.79 72.12C16.7 71.79 16.62 71.46 16.54 71.14C16.47 70.83 16.4 70.54 16.32 70.28C16.03 69.28 15.62 68.65 15.19 68C15.17 67.97 15.17 67.94 15.18 67.9C15.19 67.87 15.21 67.84 15.24 67.83C17.3 66.98 19.29 66.16 20.16 64.59C20.52 63.94 20.68 63.16 20.68 62.37C20.68 61.28 20.36 60.2 19.79 59.51C18.83 58.32 17.14 58.23 15.38 58.14L15.47 57.94C16.11 58.55 16.79 59.19 16.85 60.24C16.86 60.3 16.86 60.35 16.86 60.41C16.86 61.44 16.29 62.78 14.65 63.24C12.96 63.72 10.11 63.25 8.63 61.21C7.92 60.23 7.53 58.9 7.53 57.59C7.53 56.15 8 54.72 9.04 53.78C11.03 52 15.08 52.05 17.87 52.61C20.68 53.18 22.35 54.27 22.85 55.53C22.97 55.83 23.02 56.14 23.02 56.45C23.02 57.43 22.51 58.46 22.01 59.45L21.89 59.29C23.23 59.03 24.53 58.78 25.45 57.88C26.36 56.98 26.91 55.42 27.46 53.81C27.47 53.78 27.5 53.74 27.53 53.73C27.56 53.71 27.59 53.72 27.62 53.73C28.38 54.08 29.1 54.41 29.96 54.19C30.41 54.07 30.91 53.8 31.45 53.46C31.69 53.31 31.94 53.15 32.19 52.98C32.45 52.81 32.72 52.63 32.99 52.46C34.11 51.76 35.28 51.18 36.46 50.59C36.51 50.56 36.58 50.59 36.61 50.64C36.64 50.7 36.62 50.77 36.56 50.8Z" fill="#39A4A6" fill-opacity="1.000000" fill-rule="nonzero"/>
	<path id="path" d="M33.11 52.66C32.84 52.83 32.58 53 32.32 53.17C32.07 53.34 31.82 53.5 31.58 53.66C31.03 54 30.51 54.29 30.02 54.41C29.07 54.65 28.28 54.28 27.53 53.94L27.68 53.87C27.14 55.46 26.57 57.1 25.61 58.05C24.63 59 23.26 59.26 21.93 59.51C21.89 59.52 21.84 59.51 21.82 59.47C21.79 59.44 21.79 59.39 21.81 59.35C22.31 58.34 22.79 57.37 22.79 56.45C22.79 56.16 22.75 55.89 22.64 55.61C22.18 54.47 20.62 53.4 17.83 52.84C15.03 52.28 11.09 52.25 9.2 53.95C8.21 54.84 7.76 56.2 7.76 57.59C7.76 58.86 8.14 60.14 8.81 61.07C10.23 63.02 12.97 63.48 14.59 63.02C16.1 62.59 16.63 61.36 16.63 60.41C16.63 60.36 16.63 60.31 16.62 60.26C16.57 59.3 15.96 58.72 15.31 58.11C15.27 58.08 15.26 58.02 15.28 57.98C15.3 57.94 15.35 57.91 15.39 57.91C17.12 58 18.93 58.08 19.97 59.36C20.58 60.11 20.91 61.24 20.91 62.37C20.91 63.19 20.74 64.01 20.36 64.7C19.45 66.35 17.36 67.21 15.33 68.04L15.38 67.87C15.8 68.52 16.24 69.18 16.55 70.21C16.62 70.48 16.7 70.78 16.77 71.08C16.84 71.4 16.92 71.73 17.02 72.05C17.17 72.57 17.36 73.05 17.64 73.42C18.25 74.24 19.33 74.55 20.45 74.88L20.31 74.97C20.52 73.89 20.73 72.75 21.56 72.19C22.39 71.64 23.83 71.68 24.62 72.73C25.04 73.28 25.28 74.11 25.28 74.93C25.28 75.64 25.1 76.35 24.71 76.88C23.85 78.03 22.01 78.26 20.58 77.95C19.14 77.64 18.07 76.75 17.03 75.9L17.22 75.82C17.06 77.69 16.89 79.59 14.95 81.72C13.99 82.78 12.59 83.89 11.21 84.99C9.82 86.1 8.44 87.2 7.5 88.23C7.5 88.23 7.48 88.26 7.48 88.26C5.61 90.32 5.5 92.13 5.39 93.97L5.27 93.85C6.59 93.79 8 93.71 8.86 94.63C9.38 95.19 9.69 96.11 9.69 97.03C9.69 97.61 9.57 98.21 9.28 98.72C8.54 100.04 6.78 100.78 5.19 100.69C3.59 100.61 2.15 99.69 1.34 98.22C0.94 97.48 0.7 96.6 0.7 95.61C0.7 94.64 0.92 93.57 1.45 92.41C2.51 90.08 4.8 87.42 7.06 84.77L7.1 84.95C5.83 84.37 4.51 83.76 3.96 82.51C3.76 82.06 3.67 81.53 3.67 80.99C3.67 80.04 3.96 79.04 4.54 78.38C5.45 77.34 7.02 77.18 8.01 77.43C9.02 77.68 9.45 78.38 9.6 79.11C9.65 79.34 9.67 79.58 9.67 79.82C9.67 80.32 9.59 80.84 9.51 81.34L9.34 81.22C10.7 80.58 12 79.97 12.68 78.99C13.35 78.01 13.41 76.65 13.46 75.25L13.62 75.36L13.6 75.37C12.15 75.95 10.66 76.55 9.24 76.32C7.81 76.1 6.47 75.04 5.16 74.01C5.13 73.98 5.11 73.93 5.12 73.88C5.14 73.84 5.18 73.8 5.23 73.8C7.45 73.69 9.53 73.56 10.05 72.39C10.14 72.17 10.19 71.91 10.19 71.61C10.19 70.32 9.33 68.47 8.43 66.94C8.13 66.42 7.83 65.94 7.53 65.48C7.25 65.04 6.98 64.61 6.73 64.17C6.26 63.38 5.85 62.55 5.55 61.57C5.21 60.44 5.01 59.11 5.01 57.82C5.01 56.71 5.16 55.62 5.48 54.72C6.19 52.75 7.73 51.66 9.24 50.59C9.29 50.55 9.36 50.56 9.4 50.61C9.44 50.67 9.43 50.74 9.37 50.77C7.86 51.85 6.38 52.91 5.7 54.8C5.39 55.67 5.24 56.73 5.24 57.82C5.24 59.09 5.44 60.4 5.77 61.5C6.07 62.46 6.47 63.27 6.92 64.06C7.18 64.49 7.45 64.92 7.73 65.36C8.02 65.82 8.33 66.3 8.63 66.82C9.52 68.35 10.42 70.25 10.42 71.61C10.42 71.93 10.37 72.22 10.26 72.48C9.67 73.82 7.38 73.92 5.24 74.03L5.31 73.83C6.63 74.87 7.92 75.88 9.28 76.1C10.62 76.31 12.04 75.74 13.51 75.15L13.54 75.14C13.57 75.13 13.61 75.13 13.64 75.16C13.68 75.18 13.7 75.21 13.69 75.25C13.64 76.64 13.59 78.07 12.87 79.12C12.15 80.16 10.77 80.8 9.44 81.42C9.4 81.44 9.36 81.44 9.32 81.41C9.29 81.39 9.27 81.34 9.28 81.3C9.36 80.8 9.44 80.3 9.44 79.82C9.44 79.59 9.42 79.37 9.38 79.16C9.24 78.49 8.86 77.88 7.95 77.65C7.01 77.41 5.55 77.58 4.71 78.53C4.18 79.14 3.9 80.07 3.9 80.99C3.9 81.5 3.99 82 4.17 82.42C4.68 83.57 5.91 84.15 7.2 84.74C7.22 84.76 7.25 84.79 7.26 84.82C7.27 84.86 7.26 84.9 7.23 84.92C4.96 87.58 2.71 90.22 1.66 92.51C1.15 93.63 0.93 94.67 0.93 95.61C0.93 96.56 1.16 97.4 1.54 98.11C2.31 99.51 3.69 100.38 5.2 100.46C6.73 100.55 8.4 99.83 9.08 98.61C9.34 98.14 9.46 97.58 9.46 97.03C9.46 96.15 9.16 95.3 8.69 94.79C7.91 93.96 6.64 94.02 5.28 94.08C5.25 94.08 5.21 94.07 5.19 94.05C5.17 94.02 5.16 93.99 5.16 93.96C5.27 92.11 5.39 90.23 7.3 88.11C7.31 88.1 7.33 88.08 7.33 88.08C8.29 87.03 9.68 85.92 11.06 84.81C12.45 83.71 13.83 82.61 14.78 81.57C16.67 79.49 16.83 77.66 16.99 75.8C17 75.75 17.02 75.72 17.06 75.7C17.1 75.68 17.15 75.69 17.18 75.72C18.23 76.58 19.25 77.43 20.63 77.73C22.02 78.03 23.74 77.78 24.52 76.74C24.88 76.26 25.05 75.6 25.05 74.93C25.05 74.15 24.82 73.37 24.44 72.87C23.72 71.93 22.43 71.89 21.69 72.39C20.96 72.88 20.75 73.9 20.54 75.01C20.53 75.04 20.51 75.07 20.48 75.08C20.45 75.1 20.42 75.11 20.39 75.1C19.29 74.78 18.13 74.45 17.45 73.56C17.15 73.16 16.95 72.64 16.79 72.12C16.7 71.79 16.62 71.46 16.54 71.14C16.47 70.83 16.4 70.54 16.32 70.28C16.03 69.28 15.62 68.65 15.19 68C15.17 67.97 15.17 67.94 15.18 67.9C15.19 67.87 15.21 67.84 15.24 67.83C17.3 66.98 19.29 66.16 20.16 64.59C20.52 63.94 20.68 63.16 20.68 62.37C20.68 61.28 20.36 60.2 19.79 59.51C18.83 58.32 17.14 58.23 15.38 58.14L15.47 57.94C16.11 58.55 16.79 59.19 16.85 60.24C16.86 60.3 16.86 60.35 16.86 60.41C16.86 61.44 16.29 62.78 14.65 63.24C12.96 63.72 10.11 63.25 8.63 61.21C7.92 60.23 7.53 58.9 7.53 57.59C7.53 56.15 8 54.72 9.04 53.78C11.03 52 15.08 52.05 17.87 52.61C20.68 53.18 22.35 54.27 22.85 55.53C22.97 55.83 23.02 56.14 23.02 56.45C23.02 57.43 22.51 58.46 22.01 59.45L21.89 59.29C23.23 59.03 24.53 58.78 25.45 57.88C26.36 56.98 26.91 55.42 27.46 53.81C27.47 53.78 27.5 53.74 27.53 53.73C27.56 53.71 27.59 53.72 27.62 53.73C28.38 54.08 29.1 54.41 29.96 54.19C30.41 54.07 30.91 53.8 31.45 53.46C31.69 53.31 31.94 53.15 32.19 52.98C32.45 52.81 32.72 52.63 32.99 52.46C34.11 51.76 35.28 51.18 36.46 50.59C36.51 50.56 36.58 50.59 36.61 50.64C36.64 50.7 36.62 50.77 36.56 50.8C35.38 51.38 34.22 51.97 33.11 52.66Z" stroke="#39A4A6" stroke-opacity="1.000000" stroke-width="1.400000" stroke-linejoin="round"/>
	<path id="path" d="M36.27 50.69L35.72 50.96C34.83 51.42 33.94 51.93 33.02 52.52C32.79 52.67 32.56 52.82 32.33 52.98L32.28 53.01C32.06 53.15 31.84 53.3 31.62 53.44C31.04 53.81 30.48 54.12 29.98 54.25C29.08 54.48 28.35 54.14 27.6 53.79C27.58 53.78 27.57 53.78 27.55 53.79C27.54 53.79 27.53 53.8 27.53 53.82C26.97 55.42 26.42 57.01 25.49 57.93C24.61 58.79 23.39 59.07 22.13 59.31C22.11 59.31 22.09 59.31 22.08 59.29C22.06 59.28 22.05 59.27 22.05 59.25C22.05 59.24 22.05 59.22 22.06 59.21C22.52 58.28 22.96 57.35 22.96 56.45C22.96 56.15 22.91 55.85 22.79 55.55C22.3 54.33 20.67 53.24 17.86 52.68C15.06 52.12 11.05 52.07 9.09 53.83C8.06 54.75 7.6 56.17 7.6 57.59C7.6 58.89 7.98 60.21 8.68 61.17C10.14 63.19 12.96 63.66 14.64 63.18C16.23 62.73 16.79 61.42 16.79 60.41C16.79 60.36 16.79 60.3 16.79 60.25C16.73 59.34 16.21 58.75 15.65 58.2C15.63 58.19 15.63 58.17 15.63 58.16C15.63 58.15 15.63 58.14 15.63 58.13C15.64 58.11 15.67 58.09 15.69 58.09C17.33 58.18 18.91 58.33 19.84 59.47C20.42 60.17 20.75 61.27 20.75 62.37C20.75 63.17 20.58 63.96 20.21 64.62C19.34 66.21 17.31 67.05 15.27 67.89C15.25 67.9 15.24 67.91 15.24 67.92C15.24 67.93 15.24 67.96 15.25 67.96C15.67 68.61 16.09 69.25 16.39 70.26C16.47 70.52 16.54 70.82 16.61 71.12C16.68 71.44 16.76 71.78 16.86 72.1C17.01 72.62 17.21 73.13 17.51 73.52C18.16 74.38 19.28 74.71 20.39 75.03L20.41 75.03C20.42 75.04 20.44 75.04 20.45 75.03C20.46 75.02 20.47 75.01 20.47 75C20.68 73.9 20.89 72.84 21.66 72.33C22.42 71.82 23.75 71.86 24.49 72.83C24.89 73.35 25.11 74.14 25.11 74.93C25.11 75.61 24.94 76.29 24.57 76.78C23.77 77.84 22.01 78.1 20.61 77.79C19.22 77.49 18.18 76.63 17.14 75.77C17.12 75.76 17.1 75.75 17.09 75.76C17.07 75.77 17.06 75.78 17.06 75.8C16.89 77.67 16.73 79.52 14.83 81.61C13.88 82.65 12.49 83.76 11.1 84.87C9.72 85.97 8.33 87.08 7.38 88.12C7.37 88.13 7.36 88.14 7.35 88.15C5.45 90.26 5.34 92.12 5.22 93.96C5.22 93.97 5.23 93.99 5.24 94C5.25 94.01 5.26 94.02 5.28 94.02C6.62 93.95 7.94 93.89 8.74 94.74C9.23 95.27 9.53 96.14 9.53 97.03C9.53 97.59 9.41 98.16 9.14 98.64C8.44 99.89 6.75 100.61 5.2 100.53C3.66 100.44 2.26 99.56 1.49 98.14C1.09 97.43 0.86 96.57 0.86 95.61C0.86 94.66 1.08 93.61 1.6 92.48C2.65 90.18 4.91 87.53 7.18 84.88C7.19 84.87 7.2 84.86 7.2 84.85C7.19 84.83 7.18 84.81 7.17 84.8C7.16 84.8 7.14 84.79 7.14 84.79C5.87 84.2 4.63 83.62 4.11 82.44C3.92 82.02 3.83 81.51 3.83 80.99C3.83 80.06 4.12 79.11 4.66 78.49C5.52 77.51 7.02 77.34 7.97 77.58C8.91 77.82 9.3 78.46 9.44 79.14C9.49 79.36 9.51 79.59 9.51 79.82C9.51 80.31 9.43 80.81 9.34 81.31C9.34 81.33 9.35 81.35 9.36 81.36C9.38 81.37 9.4 81.37 9.41 81.37L9.45 81.35C10.78 80.73 12.12 80.1 12.81 79.08C13.52 78.06 13.57 76.66 13.63 75.27L13.63 75.25C13.63 75.24 13.62 75.22 13.61 75.21C13.59 75.2 13.58 75.2 13.56 75.2L13.53 75.21C12.07 75.8 10.63 76.38 9.27 76.16C7.97 75.96 6.74 75.04 5.51 74.07C5.49 74.05 5.48 74.03 5.48 74.01C5.49 73.99 5.52 73.95 5.55 73.95C7.61 73.84 9.66 73.68 10.2 72.45C10.31 72.21 10.35 71.92 10.35 71.61C10.35 70.27 9.47 68.39 8.57 66.85C8.27 66.34 7.97 65.86 7.67 65.4C7.4 64.96 7.12 64.53 6.87 64.09C6.41 63.31 6 62.49 5.71 61.52C5.37 60.41 5.18 59.09 5.18 57.82C5.18 56.72 5.33 55.65 5.64 54.77C6.31 52.89 7.95 51.76 9.4 50.72C9.41 50.72 9.42 50.62 9.42 50.62C10.01 50.45 36.27 50.69 36.27 50.69Z" fill="#39A4A6" fill-opacity="1.000000" fill-rule="nonzero"/>
	<path id="path" d="M36.47 50.8L36.42 50.77C35.26 50.2 34.1 49.62 33 48.93C32.73 48.76 32.46 48.59 32.19 48.41C31.94 48.24 31.69 48.08 31.45 47.93C30.91 47.59 30.42 47.33 29.97 47.21C29.11 46.99 28.39 47.32 27.63 47.67C27.6 47.68 27.57 47.68 27.54 47.67C27.51 47.66 27.49 47.63 27.48 47.6C26.92 45.99 26.38 44.42 25.46 43.52C24.54 42.62 23.24 42.37 21.9 42.11L22.02 41.95C22.52 42.94 23.03 43.97 23.03 44.95C23.03 45.26 22.98 45.57 22.86 45.87C22.36 47.13 20.69 48.22 17.88 48.78C15.08 49.35 11.04 49.4 9.05 47.62C8.01 46.68 7.54 45.24 7.54 43.81C7.54 42.5 7.93 41.17 8.64 40.19C10.12 38.14 12.97 37.67 14.66 38.16C16.3 38.62 16.87 39.96 16.87 40.99C16.87 41.04 16.87 41.1 16.86 41.16C16.8 42.21 16.12 42.85 15.48 43.46L15.39 43.26C17.15 43.17 18.84 43.07 19.8 41.89C20.37 41.2 20.7 40.12 20.7 39.02C20.7 38.24 20.53 37.46 20.17 36.81C19.3 35.24 17.31 34.42 15.25 33.57C15.22 33.56 15.2 33.53 15.19 33.5C15.18 33.46 15.18 33.43 15.2 33.4C15.62 32.75 16.04 32.12 16.33 31.12C16.41 30.86 16.48 30.57 16.55 30.26C16.63 29.94 16.71 29.61 16.81 29.28C16.96 28.75 17.16 28.24 17.46 27.84C18.14 26.95 19.29 26.62 20.4 26.3C20.43 26.29 20.46 26.3 20.49 26.31C20.52 26.33 20.54 26.36 20.54 26.39C20.76 27.49 20.96 28.52 21.7 29.01C22.44 29.51 23.74 29.47 24.45 28.53C24.83 28.03 25.06 27.25 25.06 26.47C25.06 25.8 24.89 25.14 24.53 24.66C23.75 23.62 22.03 23.37 20.64 23.67C19.26 23.97 18.24 24.82 17.19 25.68C17.16 25.71 17.11 25.72 17.07 25.7C17.03 25.68 17.01 25.65 17 25.6C16.84 23.74 16.68 21.91 14.79 19.83C13.84 18.79 12.46 17.69 11.07 16.58C9.69 15.48 8.3 14.37 7.34 13.32C7.34 13.32 7.32 13.3 7.31 13.29C5.4 11.17 5.28 9.29 5.17 7.44C5.17 7.41 5.18 7.37 5.2 7.35C5.22 7.33 5.26 7.32 5.29 7.32C6.65 7.38 7.92 7.44 8.7 6.61C9.17 6.1 9.47 5.25 9.47 4.37C9.47 3.82 9.35 3.26 9.09 2.79C8.41 1.57 6.75 0.85 5.21 0.94C3.7 1.02 2.32 1.89 1.55 3.29C1.17 3.99 0.94 4.84 0.94 5.79C0.94 6.72 1.16 7.76 1.67 8.89C2.72 11.18 4.97 13.82 7.24 16.48C7.27 16.5 7.28 16.54 7.27 16.58C7.26 16.61 7.24 16.64 7.2 16.66C5.92 17.25 4.69 17.83 4.18 18.98C4 19.4 3.91 19.9 3.91 20.41C3.91 21.32 4.19 22.26 4.72 22.87C5.56 23.82 7.02 23.99 7.96 23.75C8.87 23.52 9.25 22.91 9.39 22.24C9.43 22.03 9.45 21.8 9.45 21.58C9.45 21.1 9.37 20.6 9.29 20.1C9.28 20.05 9.3 20.01 9.33 19.99C9.37 19.96 9.41 19.96 9.45 19.97C10.78 20.6 12.16 21.24 12.88 22.28C13.6 23.32 13.65 24.76 13.7 26.14C13.71 26.18 13.69 26.22 13.65 26.24C13.62 26.27 13.58 26.27 13.54 26.26L13.52 26.25C12.05 25.65 10.63 25.09 9.29 25.3C7.93 25.52 6.64 26.53 5.32 27.57L5.25 27.37L5.28 27.37C7.41 27.48 9.68 27.59 10.27 28.92C10.38 29.18 10.43 29.47 10.43 29.79C10.43 31.14 9.53 33.05 8.64 34.58C8.34 35.1 8.03 35.58 7.74 36.04C7.46 36.48 7.19 36.91 6.93 37.34C6.48 38.12 6.08 38.94 5.78 39.9C5.45 41 5.26 42.31 5.26 43.58C5.26 44.67 5.4 45.73 5.71 46.6C6.39 48.48 7.86 49.52 9.37 50.57C9.42 50.61 9.43 50.68 9.4 50.73C9.36 50.79 9.29 50.8 9.24 50.76C7.73 49.71 6.2 48.64 5.49 46.68C5.17 45.78 5.03 44.69 5.03 43.58C5.03 42.29 5.22 40.96 5.56 39.83C5.86 38.85 6.27 38.02 6.74 37.22C6.99 36.78 7.26 36.36 7.54 35.92C7.84 35.45 8.14 34.98 8.44 34.46C9.34 32.93 10.2 31.07 10.2 29.79C10.2 29.49 10.15 29.23 10.06 29.01C9.54 27.84 7.48 27.71 5.27 27.6L5.24 27.6C5.19 27.6 5.15 27.56 5.13 27.52C5.12 27.47 5.14 27.42 5.17 27.39C6.48 26.36 7.82 25.3 9.25 25.07C10.67 24.85 12.16 25.45 13.61 26.03L13.63 26.04L13.47 26.15C13.42 24.75 13.36 23.39 12.69 22.41C12.01 21.43 10.71 20.81 9.35 20.18L9.52 20.06C9.6 20.56 9.68 21.08 9.68 21.58C9.68 21.82 9.66 22.06 9.61 22.29C9.46 23.02 9.03 23.72 8.02 23.97C7.03 24.22 5.46 24.06 4.55 23.02C3.97 22.36 3.68 21.36 3.68 20.41C3.68 19.87 3.77 19.34 3.97 18.89C4.52 17.64 5.83 17.04 7.09 16.45L7.07 16.63C4.81 13.98 2.52 11.31 1.46 8.99C0.93 7.83 0.7 6.76 0.7 5.79C0.7 4.8 0.95 3.92 1.35 3.18C2.16 1.71 3.6 0.79 5.2 0.71C6.79 0.62 8.55 1.36 9.29 2.67C9.58 3.19 9.7 3.79 9.7 4.37C9.7 5.29 9.39 6.21 8.87 6.77C8.01 7.69 6.6 7.61 5.28 7.55L5.4 7.43C5.51 9.27 5.62 11.08 7.49 13.14C7.5 13.15 7.5 13.15 7.51 13.17C8.45 14.2 9.83 15.3 11.22 16.4C12.6 17.51 14 18.62 14.96 19.68C16.9 21.81 17.07 23.71 17.23 25.58L17.04 25.5C18.08 24.64 19.15 23.76 20.59 23.45C22.02 23.14 23.86 23.37 24.71 24.52C25.11 25.05 25.29 25.76 25.29 26.47C25.29 27.29 25.05 28.12 24.63 28.67C23.83 29.72 22.4 29.76 21.57 29.21C20.74 28.65 20.53 27.5 20.32 26.43L20.46 26.52C19.34 26.85 18.26 27.16 17.65 27.98C17.37 28.35 17.18 28.83 17.03 29.35C16.93 29.67 16.85 29.99 16.78 30.32C16.71 30.62 16.63 30.92 16.56 31.19C16.25 32.22 15.82 32.88 15.39 33.53L15.34 33.36C17.37 34.19 19.46 35.05 20.37 36.7C20.75 37.39 20.92 38.21 20.92 39.02C20.92 40.16 20.59 41.29 19.98 42.04C18.94 43.32 17.13 43.4 15.4 43.49C15.36 43.49 15.31 43.46 15.29 43.42C15.27 43.38 15.28 43.32 15.32 43.29C15.97 42.68 16.58 42.1 16.63 41.14C16.64 41.09 16.64 41.04 16.64 40.99C16.64 40.04 16.11 38.81 14.6 38.38C12.98 37.92 10.24 38.38 8.83 40.33C8.15 41.26 7.77 42.54 7.77 43.81C7.77 45.2 8.22 46.56 9.21 47.45C11.1 49.15 15.04 49.12 17.84 48.56C20.63 48 22.19 46.93 22.65 45.79C22.75 45.51 22.8 45.23 22.8 44.95C22.8 44.03 22.32 43.06 21.82 42.05C21.8 42.01 21.8 41.96 21.83 41.93C21.86 41.89 21.9 41.88 21.94 41.89C23.27 42.14 24.64 42.4 25.62 43.35C26.58 44.3 27.14 45.94 27.69 47.53L27.54 47.46C28.29 47.11 29.08 46.74 30.03 46.99C30.51 47.11 31.03 47.4 31.57 47.73C31.81 47.89 32.07 48.05 32.32 48.22C32.58 48.39 32.85 48.57 33.12 48.74C34.21 49.42 35.36 49.99 36.52 50.57L36.57 50.59C36.63 50.62 36.65 50.69 36.62 50.74C36.59 50.8 36.52 50.82 36.47 50.8Z" fill="#39A4A6" fill-opacity="1.000000" fill-rule="nonzero"/>
	<path id="path" d="M36.42 50.77C35.26 50.2 34.1 49.62 33 48.93C32.73 48.76 32.46 48.59 32.19 48.41C31.94 48.24 31.69 48.08 31.45 47.93C30.91 47.59 30.42 47.33 29.97 47.21C29.11 46.99 28.39 47.32 27.63 47.67C27.6 47.68 27.57 47.68 27.54 47.67C27.51 47.66 27.49 47.63 27.48 47.6C26.92 45.99 26.38 44.42 25.46 43.52C24.54 42.62 23.24 42.37 21.9 42.11L22.02 41.95C22.52 42.94 23.03 43.97 23.03 44.95C23.03 45.26 22.98 45.57 22.86 45.87C22.36 47.13 20.69 48.22 17.88 48.78C15.08 49.35 11.04 49.4 9.05 47.62C8.01 46.68 7.54 45.24 7.54 43.81C7.54 42.5 7.93 41.17 8.64 40.19C10.12 38.14 12.97 37.67 14.66 38.16C16.3 38.62 16.87 39.96 16.87 40.99C16.87 41.04 16.87 41.1 16.86 41.16C16.8 42.21 16.12 42.85 15.48 43.46L15.39 43.26C17.15 43.17 18.84 43.07 19.8 41.89C20.37 41.2 20.7 40.12 20.7 39.02C20.7 38.24 20.53 37.46 20.17 36.81C19.3 35.24 17.31 34.42 15.25 33.57C15.22 33.56 15.2 33.53 15.19 33.5C15.18 33.46 15.18 33.43 15.2 33.4C15.62 32.75 16.04 32.12 16.33 31.12C16.41 30.86 16.48 30.57 16.55 30.26C16.63 29.94 16.71 29.61 16.81 29.28C16.96 28.75 17.16 28.24 17.46 27.84C18.14 26.95 19.29 26.62 20.4 26.3C20.43 26.29 20.46 26.3 20.49 26.31C20.52 26.33 20.54 26.36 20.54 26.39C20.76 27.49 20.96 28.52 21.7 29.01C22.44 29.51 23.74 29.47 24.45 28.53C24.83 28.03 25.06 27.25 25.06 26.47C25.06 25.8 24.89 25.14 24.53 24.66C23.75 23.62 22.03 23.37 20.64 23.67C19.26 23.97 18.24 24.82 17.19 25.68C17.16 25.71 17.11 25.72 17.07 25.7C17.03 25.68 17.01 25.65 17 25.6C16.84 23.74 16.68 21.91 14.79 19.83C13.84 18.79 12.46 17.69 11.07 16.58C9.69 15.48 8.3 14.37 7.34 13.32C7.34 13.32 7.32 13.3 7.31 13.29C5.4 11.17 5.28 9.29 5.17 7.44C5.17 7.41 5.18 7.37 5.2 7.35C5.22 7.33 5.26 7.32 5.29 7.32C6.65 7.38 7.92 7.44 8.7 6.61C9.17 6.1 9.47 5.25 9.47 4.37C9.47 3.82 9.35 3.26 9.09 2.79C8.41 1.57 6.75 0.85 5.21 0.94C3.7 1.02 2.32 1.89 1.55 3.29C1.17 3.99 0.94 4.84 0.94 5.79C0.94 6.72 1.16 7.76 1.67 8.89C2.72 11.18 4.97 13.82 7.24 16.48C7.27 16.5 7.28 16.54 7.27 16.58C7.26 16.61 7.24 16.64 7.2 16.66C5.92 17.25 4.69 17.83 4.18 18.98C4 19.4 3.91 19.9 3.91 20.41C3.91 21.32 4.19 22.26 4.72 22.87C5.56 23.82 7.02 23.99 7.96 23.75C8.87 23.52 9.25 22.91 9.39 22.24C9.43 22.03 9.45 21.8 9.45 21.58C9.45 21.1 9.37 20.6 9.29 20.1C9.28 20.05 9.3 20.01 9.33 19.99C9.37 19.96 9.41 19.96 9.45 19.97C10.78 20.6 12.16 21.24 12.88 22.28C13.6 23.32 13.65 24.76 13.7 26.14C13.71 26.18 13.69 26.22 13.65 26.24C13.62 26.27 13.58 26.27 13.54 26.26L13.52 26.25C12.05 25.65 10.63 25.09 9.29 25.3C7.93 25.52 6.64 26.53 5.32 27.57L5.25 27.37L5.28 27.37C7.41 27.48 9.68 27.59 10.27 28.92C10.38 29.18 10.43 29.47 10.43 29.79C10.43 31.14 9.53 33.05 8.64 34.58C8.34 35.1 8.03 35.58 7.74 36.04C7.46 36.48 7.19 36.91 6.93 37.34C6.48 38.12 6.08 38.94 5.78 39.9C5.45 41 5.26 42.31 5.26 43.58C5.26 44.67 5.4 45.73 5.71 46.6C6.39 48.48 7.86 49.52 9.37 50.57C9.42 50.61 9.43 50.68 9.4 50.73C9.36 50.79 9.29 50.8 9.24 50.76C7.73 49.71 6.2 48.64 5.49 46.68C5.17 45.78 5.03 44.69 5.03 43.58C5.03 42.29 5.22 40.96 5.56 39.83C5.86 38.85 6.27 38.02 6.74 37.22C6.99 36.78 7.26 36.36 7.54 35.92C7.84 35.45 8.14 34.98 8.44 34.46C9.34 32.93 10.2 31.07 10.2 29.79C10.2 29.49 10.15 29.23 10.06 29.01C9.54 27.84 7.48 27.71 5.27 27.6L5.24 27.6C5.19 27.6 5.15 27.56 5.13 27.52C5.12 27.47 5.14 27.42 5.17 27.39C6.48 26.36 7.82 25.3 9.25 25.07C10.67 24.85 12.16 25.45 13.61 26.03L13.63 26.04L13.47 26.15C13.42 24.75 13.36 23.39 12.69 22.41C12.01 21.43 10.71 20.81 9.35 20.18L9.52 20.06C9.6 20.56 9.68 21.08 9.68 21.58C9.68 21.82 9.66 22.06 9.61 22.29C9.46 23.02 9.03 23.72 8.02 23.97C7.03 24.22 5.46 24.06 4.55 23.02C3.97 22.36 3.68 21.36 3.68 20.41C3.68 19.87 3.77 19.34 3.97 18.89C4.52 17.64 5.83 17.04 7.09 16.45L7.07 16.63C4.81 13.98 2.52 11.31 1.46 8.99C0.93 7.83 0.7 6.76 0.7 5.79C0.7 4.8 0.95 3.92 1.35 3.18C2.16 1.71 3.6 0.79 5.2 0.71C6.79 0.62 8.55 1.36 9.29 2.67C9.58 3.19 9.7 3.79 9.7 4.37C9.7 5.29 9.39 6.21 8.87 6.77C8.01 7.69 6.6 7.61 5.28 7.55L5.4 7.43C5.51 9.27 5.62 11.08 7.49 13.14C7.5 13.15 7.5 13.15 7.51 13.17C8.45 14.2 9.83 15.3 11.22 16.4C12.6 17.51 14 18.62 14.96 19.68C16.9 21.81 17.07 23.71 17.23 25.58L17.04 25.5C18.08 24.64 19.15 23.76 20.59 23.45C22.02 23.14 23.86 23.37 24.71 24.52C25.11 25.05 25.29 25.76 25.29 26.47C25.29 27.29 25.05 28.12 24.63 28.67C23.83 29.72 22.4 29.76 21.57 29.21C20.74 28.65 20.53 27.5 20.32 26.43L20.46 26.52C19.34 26.85 18.26 27.16 17.65 27.98C17.37 28.35 17.18 28.83 17.03 29.35C16.93 29.67 16.85 29.99 16.78 30.32C16.71 30.62 16.63 30.92 16.56 31.19C16.25 32.22 15.82 32.88 15.39 33.53L15.34 33.36C17.37 34.19 19.46 35.05 20.37 36.7C20.75 37.39 20.92 38.21 20.92 39.02C20.92 40.16 20.59 41.29 19.98 42.04C18.94 43.32 17.13 43.4 15.4 43.49C15.36 43.49 15.31 43.46 15.29 43.42C15.27 43.38 15.28 43.32 15.32 43.29C15.97 42.68 16.58 42.1 16.63 41.14C16.64 41.09 16.64 41.04 16.64 40.99C16.64 40.04 16.11 38.81 14.6 38.38C12.98 37.92 10.24 38.38 8.83 40.33C8.15 41.26 7.77 42.54 7.77 43.81C7.77 45.2 8.22 46.56 9.21 47.45C11.1 49.15 15.04 49.12 17.84 48.56C20.63 48 22.19 46.93 22.65 45.79C22.75 45.51 22.8 45.23 22.8 44.95C22.8 44.03 22.32 43.06 21.82 42.05C21.8 42.01 21.8 41.96 21.83 41.93C21.86 41.89 21.9 41.88 21.94 41.89C23.27 42.14 24.64 42.4 25.62 43.35C26.58 44.3 27.14 45.94 27.69 47.53L27.54 47.46C28.29 47.11 29.08 46.74 30.03 46.99C30.51 47.11 31.03 47.4 31.57 47.73C31.81 47.89 32.07 48.05 32.32 48.22C32.58 48.39 32.85 48.57 33.12 48.74C34.21 49.42 35.36 49.99 36.52 50.57L36.57 50.59C36.63 50.62 36.65 50.69 36.62 50.74C36.59 50.8 36.52 50.82 36.47 50.8L36.42 50.77Z" stroke="#39A4A6" stroke-opacity="1.000000" stroke-width="1.400000" stroke-linejoin="round"/>
	<path id="path" d="M35.73 50.43C34.83 49.99 33.95 49.46 33.03 48.88C32.8 48.73 32.57 48.58 32.34 48.42L32.29 48.39C32.07 48.24 31.85 48.1 31.63 47.96C31.05 47.59 30.49 47.28 29.99 47.15C29.09 46.91 28.36 47.26 27.61 47.61C27.59 47.62 27.58 47.62 27.57 47.61C27.55 47.61 27.54 47.6 27.54 47.58C26.98 45.98 26.44 44.39 25.5 43.47C24.62 42.61 23.4 42.33 22.14 42.09C22.12 42.09 22.1 42.09 22.09 42.1C22.07 42.12 22.06 42.13 22.06 42.15C22.06 42.16 22.06 42.18 22.07 42.19C22.53 43.12 22.97 44.05 22.97 44.95C22.97 45.25 22.92 45.55 22.8 45.85C22.31 47.07 20.68 48.16 17.87 48.72C15.07 49.28 11.06 49.33 9.1 47.57C8.07 46.64 7.61 45.23 7.61 43.81C7.61 42.51 7.99 41.19 8.69 40.23C10.15 38.21 12.97 37.74 14.65 38.22C16.24 38.67 16.8 39.98 16.8 40.99C16.8 41.04 16.8 41.1 16.8 41.15C16.74 42.06 16.22 42.65 15.66 43.2C15.64 43.21 15.64 43.23 15.64 43.24C15.64 43.25 15.64 43.26 15.64 43.27C15.65 43.29 15.68 43.31 15.7 43.31C17.34 43.22 18.92 43.07 19.85 41.93C20.43 41.23 20.76 40.13 20.76 39.02C20.76 38.23 20.59 37.44 20.23 36.78C19.35 35.19 17.33 34.35 15.28 33.51C15.26 33.5 15.25 33.49 15.25 33.48C15.25 33.47 15.25 33.44 15.25 33.43C15.68 32.79 16.1 32.15 16.4 31.14C16.48 30.87 16.54 30.58 16.62 30.28C16.69 29.96 16.77 29.62 16.87 29.3C17.02 28.77 17.22 28.27 17.52 27.88C18.17 27.01 19.29 26.69 20.4 26.37L20.42 26.36C20.43 26.36 20.45 26.36 20.46 26.37C20.47 26.38 20.48 26.39 20.48 26.4C20.69 27.5 20.9 28.56 21.67 29.07C22.43 29.58 23.76 29.54 24.5 28.57C24.9 28.05 25.12 27.26 25.12 26.47C25.12 25.79 24.95 25.11 24.58 24.62C23.78 23.56 22.02 23.3 20.62 23.61C19.23 23.91 18.19 24.77 17.15 25.63C17.13 25.64 17.12 25.65 17.1 25.64C17.08 25.63 17.07 25.62 17.07 25.6C16.91 23.73 16.74 21.88 14.84 19.79C13.89 18.74 12.5 17.64 11.11 16.53C9.73 15.43 8.34 14.32 7.39 13.28C7.38 13.27 7.37 13.26 7.36 13.25C5.46 11.14 5.35 9.28 5.23 7.44C5.23 7.42 5.24 7.41 5.25 7.4C5.26 7.39 5.27 7.38 5.29 7.38C6.63 7.45 7.95 7.51 8.75 6.65C9.24 6.13 9.54 5.26 9.54 4.37C9.54 3.81 9.42 3.24 9.15 2.76C8.45 1.51 6.76 0.79 5.21 0.87C3.67 0.95 2.27 1.84 1.5 3.26C1.1 3.97 0.87 4.83 0.87 5.79C0.87 6.73 1.09 7.78 1.61 8.92C2.66 11.22 4.92 13.87 7.2 16.52C7.2 16.53 7.21 16.54 7.21 16.55C7.2 16.57 7.19 16.59 7.18 16.6C7.17 16.6 7.15 16.61 7.15 16.61C5.88 17.2 4.64 17.78 4.12 18.95C3.93 19.38 3.84 19.89 3.84 20.41C3.84 21.34 4.13 22.29 4.67 22.91C5.53 23.89 7.03 24.05 7.98 23.81C8.92 23.58 9.31 22.94 9.45 22.26C9.5 22.04 9.52 21.81 9.52 21.58C9.52 21.09 9.44 20.59 9.35 20.09C9.35 20.07 9.36 20.05 9.37 20.04C9.39 20.03 9.41 20.03 9.42 20.03L9.46 20.05C10.79 20.67 12.12 21.3 12.82 22.32C13.53 23.34 13.58 24.74 13.64 26.13L13.64 26.15C13.64 26.16 13.63 26.18 13.62 26.19C13.6 26.2 13.59 26.2 13.57 26.2L13.54 26.18C12.08 25.6 10.64 25.02 9.28 25.24C7.98 25.44 6.75 26.36 5.52 27.33C5.5 27.35 5.49 27.36 5.49 27.38C5.5 27.41 5.53 27.45 5.56 27.45C7.62 27.56 9.67 27.72 10.21 28.95C10.32 29.19 10.36 29.48 10.36 29.79C10.36 31.13 9.48 33.01 8.58 34.55C8.28 35.06 7.98 35.54 7.68 36C7.41 36.44 7.13 36.87 6.88 37.3C6.42 38.09 6.01 38.91 5.72 39.88C5.38 40.99 5.19 42.3 5.19 43.58C5.19 44.68 5.43 45.92 5.75 46.8C5.99 47.49 6.46 48.12 7.04 48.73C7.44 49.16 8.14 49.69 8.55 50C9.08 50.4 9.17 50.46 9.34 50.56C9.58 50.71 9.21 50.92 9.29 50.91C9.43 50.91 9.54 50.73 9.54 50.73C30.52 50.78 35.25 50.69 35.25 50.69C35.9 50.7 36.27 50.7 36.27 50.7L35.73 50.43Z" fill="#39A4A6" fill-opacity="1.000000" fill-rule="nonzero"/>
</svg>
