<svg width="37.364258" height="101.408844" viewBox="0 0 37.3643 101.409" fill="none" xmlns="http://www.w3.org/2000/svg" xmlns:xlink="http://www.w3.org/1999/xlink">
	<desc>
			Created with Pixso.
	</desc>
	<defs/>
	<path id="path" d="M0.79 50.6C1.97 50.01 3.14 49.43 4.24 48.74C4.51 48.57 4.78 48.4 5.04 48.22C5.29 48.06 5.54 47.89 5.78 47.74C6.32 47.4 6.85 47.11 7.34 46.99C8.29 46.74 9.08 47.11 9.83 47.46L9.67 47.53C10.22 45.94 10.78 44.3 11.75 43.35C12.72 42.4 14.09 42.14 15.42 41.89C15.47 41.88 15.51 41.89 15.54 41.93C15.56 41.96 15.57 42.01 15.55 42.05C15.04 43.06 14.56 44.03 14.56 44.95C14.56 45.23 14.61 45.51 14.72 45.79C15.17 46.93 16.73 48 19.52 48.56C22.33 49.12 26.26 49.15 28.16 47.45C29.14 46.56 29.59 45.2 29.59 43.81C29.59 42.54 29.22 41.26 28.54 40.33C27.13 38.38 24.38 37.92 22.76 38.38C21.25 38.81 20.73 40.04 20.73 40.99C20.73 41.04 20.73 41.09 20.73 41.14C20.79 42.1 21.4 42.68 22.04 43.29C22.08 43.32 22.09 43.38 22.07 43.42C22.05 43.46 22.01 43.49 21.96 43.49C20.23 43.4 18.43 43.31 17.38 42.04C16.78 41.29 16.44 40.16 16.44 39.02C16.44 38.21 16.61 37.39 17 36.7C17.91 35.05 20 34.19 22.02 33.36L21.98 33.53C21.55 32.88 21.11 32.22 20.81 31.19C20.73 30.92 20.66 30.62 20.59 30.32C20.51 30 20.43 29.66 20.34 29.35C20.19 28.83 20 28.35 19.72 27.98C19.1 27.16 18.03 26.85 16.9 26.52L17.04 26.43C16.84 27.5 16.62 28.65 15.79 29.21C14.96 29.76 13.53 29.72 12.73 28.67C12.31 28.12 12.08 27.29 12.08 26.47C12.08 25.76 12.25 25.05 12.65 24.52C13.51 23.37 15.35 23.14 16.78 23.45C18.22 23.76 19.28 24.64 20.32 25.5L20.13 25.58C20.3 23.71 20.46 21.81 22.4 19.68C23.37 18.62 24.76 17.51 26.15 16.4C27.54 15.3 28.91 14.2 29.85 13.17C29.85 13.17 29.88 13.14 29.88 13.14C31.74 11.08 31.85 9.27 31.97 7.43L32.09 7.55C30.76 7.61 29.36 7.69 28.5 6.77C27.97 6.21 27.66 5.29 27.66 4.37C27.66 3.79 27.79 3.19 28.08 2.67C28.81 1.36 30.57 0.62 32.16 0.71C33.76 0.79 35.21 1.71 36.01 3.18C36.42 3.92 36.66 4.8 36.66 5.79C36.66 6.76 36.43 7.83 35.9 8.99C34.84 11.31 32.56 13.98 30.29 16.63L30.26 16.45C31.52 17.03 32.84 17.64 33.39 18.89C33.59 19.34 33.69 19.87 33.69 20.41C33.69 21.36 33.39 22.36 32.81 23.02C31.91 24.06 30.34 24.22 29.35 23.97C28.33 23.72 27.9 23.02 27.75 22.29C27.7 22.06 27.68 21.82 27.68 21.58C27.68 21.08 27.77 20.56 27.85 20.06L28.01 20.18C26.66 20.81 25.35 21.43 24.68 22.41C24 23.39 23.95 24.75 23.89 26.15L23.73 26.04L23.76 26.03C25.21 25.45 26.69 24.85 28.12 25.07C29.54 25.3 30.88 26.36 32.19 27.39C32.23 27.42 32.24 27.47 32.23 27.52C32.21 27.56 32.17 27.6 32.13 27.6C29.9 27.71 27.83 27.84 27.31 29.01C27.21 29.23 27.17 29.49 27.17 29.79C27.17 31.07 28.03 32.92 28.92 34.46C29.22 34.98 29.53 35.46 29.82 35.92C30.1 36.36 30.37 36.79 30.63 37.23C31.09 38.02 31.5 38.85 31.8 39.83C32.14 40.96 32.34 42.29 32.34 43.58C32.34 44.69 32.2 45.77 31.87 46.68C31.16 48.65 29.62 49.74 28.11 50.81C28.06 50.85 27.99 50.84 27.95 50.79C27.92 50.73 27.93 50.66 27.98 50.63C29.5 49.55 30.98 48.49 31.65 46.6C31.97 45.73 32.11 44.67 32.11 43.58C32.11 42.31 31.92 41 31.58 39.9C31.29 38.94 30.89 38.13 30.43 37.34C30.18 36.91 29.91 36.48 29.63 36.04C29.33 35.58 29.03 35.1 28.73 34.58C27.83 33.04 26.94 31.14 26.94 29.79C26.94 29.47 26.98 29.18 27.1 28.92C27.69 27.58 29.98 27.48 32.11 27.37L32.05 27.57C30.72 26.53 29.43 25.52 28.08 25.3C26.73 25.09 25.31 25.65 23.84 26.25L23.82 26.26C23.78 26.27 23.74 26.27 23.71 26.24C23.68 26.22 23.66 26.18 23.66 26.14C23.71 24.76 23.77 23.32 24.49 22.28C25.21 21.24 26.58 20.6 27.91 19.97C27.95 19.96 28 19.96 28.03 19.99C28.07 20.01 28.08 20.05 28.08 20.1C27.99 20.6 27.91 21.1 27.91 21.58C27.91 21.8 27.93 22.03 27.98 22.24C28.11 22.91 28.49 23.52 29.4 23.75C30.34 23.99 31.81 23.82 32.64 22.87C33.17 22.26 33.46 21.32 33.46 20.41C33.46 19.9 33.37 19.4 33.18 18.98C32.67 17.83 31.45 17.25 30.16 16.66C30.13 16.64 30.1 16.61 30.09 16.58C30.09 16.54 30.1 16.5 30.12 16.48C32.39 13.82 34.65 11.18 35.69 8.89C36.21 7.76 36.43 6.72 36.43 5.79C36.43 4.84 36.2 3.99 35.81 3.29C35.04 1.89 33.67 1.02 32.15 0.94C30.62 0.85 28.96 1.57 28.28 2.79C28.01 3.26 27.89 3.82 27.89 4.37C27.89 5.25 28.19 6.1 28.66 6.61C29.44 7.44 30.72 7.38 32.08 7.32C32.11 7.32 32.14 7.33 32.16 7.35C32.19 7.37 32.2 7.41 32.2 7.44C32.08 9.29 31.97 11.17 30.05 13.29C30.04 13.3 30.03 13.32 30.02 13.32C29.07 14.37 27.67 15.48 26.29 16.58C24.9 17.69 23.52 18.79 22.57 19.83C20.69 21.91 20.52 23.74 20.36 25.6C20.36 25.65 20.33 25.68 20.29 25.7C20.25 25.72 20.21 25.71 20.17 25.68C19.13 24.82 18.11 23.97 16.73 23.67C15.33 23.37 13.61 23.62 12.83 24.66C12.47 25.14 12.31 25.8 12.31 26.47C12.31 27.25 12.53 28.03 12.92 28.53C13.63 29.47 14.92 29.51 15.66 29.01C16.4 28.52 16.61 27.49 16.82 26.39C16.83 26.36 16.84 26.33 16.87 26.31C16.9 26.3 16.93 26.29 16.96 26.3C18.07 26.62 19.23 26.95 19.9 27.84C20.2 28.24 20.4 28.75 20.56 29.28C20.65 29.61 20.74 29.94 20.81 30.26C20.88 30.57 20.95 30.86 21.03 31.12C21.32 32.12 21.74 32.75 22.16 33.4C22.19 33.43 22.19 33.46 22.18 33.5C22.17 33.53 22.14 33.56 22.11 33.57C20.06 34.42 18.06 35.24 17.2 36.81C16.84 37.46 16.67 38.24 16.67 39.02C16.67 40.12 17 41.2 17.56 41.89C18.53 43.07 20.21 43.17 21.97 43.26L21.89 43.46C21.25 42.85 20.57 42.21 20.5 41.16C20.5 41.1 20.5 41.05 20.5 40.99C20.5 39.96 21.07 38.62 22.7 38.15C24.39 37.67 27.24 38.15 28.73 40.19C29.43 41.17 29.82 42.5 29.82 43.81C29.82 45.24 29.36 46.68 28.31 47.62C26.32 49.4 22.28 49.35 19.48 48.78C16.67 48.22 15.01 47.13 14.5 45.87C14.38 45.57 14.33 45.26 14.33 44.95C14.33 43.97 14.85 42.94 15.34 41.95L15.47 42.11C14.12 42.37 12.82 42.62 11.91 43.52C10.99 44.42 10.45 45.98 9.89 47.59C9.88 47.62 9.86 47.66 9.83 47.67C9.8 47.68 9.76 47.68 9.73 47.67C8.97 47.32 8.25 46.99 7.4 47.21C6.94 47.33 6.44 47.6 5.9 47.94C5.66 48.09 5.42 48.25 5.16 48.42C4.91 48.59 4.63 48.77 4.37 48.93C3.25 49.64 2.07 50.22 0.9 50.81C0.84 50.83 0.77 50.81 0.74 50.75C0.71 50.7 0.74 50.63 0.79 50.6Z" fill="#39A4A6" fill-opacity="1.000000" fill-rule="nonzero"/>
	<path id="path" d="M4.24 48.74C4.51 48.57 4.78 48.4 5.04 48.22C5.29 48.06 5.54 47.89 5.78 47.74C6.32 47.4 6.85 47.11 7.34 46.99C8.29 46.74 9.08 47.11 9.83 47.46L9.67 47.53C10.22 45.94 10.78 44.3 11.75 43.35C12.72 42.4 14.09 42.14 15.42 41.89C15.47 41.88 15.51 41.89 15.54 41.93C15.56 41.96 15.57 42.01 15.55 42.05C15.04 43.06 14.56 44.03 14.56 44.95C14.56 45.23 14.61 45.51 14.72 45.79C15.17 46.93 16.73 48 19.52 48.56C22.33 49.12 26.26 49.15 28.16 47.45C29.14 46.56 29.59 45.2 29.59 43.81C29.59 42.54 29.22 41.26 28.54 40.33C27.13 38.38 24.38 37.92 22.76 38.38C21.25 38.81 20.73 40.04 20.73 40.99C20.73 41.04 20.73 41.09 20.73 41.14C20.79 42.1 21.4 42.68 22.04 43.29C22.08 43.32 22.09 43.38 22.07 43.42C22.05 43.46 22.01 43.49 21.96 43.49C20.23 43.4 18.43 43.31 17.38 42.04C16.78 41.29 16.44 40.16 16.44 39.02C16.44 38.21 16.61 37.39 17 36.7C17.91 35.05 20 34.19 22.02 33.36L21.98 33.53C21.55 32.88 21.11 32.22 20.81 31.19C20.73 30.92 20.66 30.62 20.59 30.32C20.51 30 20.43 29.66 20.34 29.35C20.19 28.83 20 28.35 19.72 27.98C19.1 27.16 18.03 26.85 16.9 26.52L17.04 26.43C16.84 27.5 16.62 28.65 15.79 29.21C14.96 29.76 13.53 29.72 12.73 28.67C12.31 28.12 12.08 27.29 12.08 26.47C12.08 25.76 12.25 25.05 12.65 24.52C13.51 23.37 15.35 23.14 16.78 23.45C18.22 23.76 19.28 24.64 20.32 25.5L20.13 25.58C20.3 23.71 20.46 21.81 22.4 19.68C23.37 18.62 24.76 17.51 26.15 16.4C27.54 15.3 28.91 14.2 29.85 13.17C29.85 13.17 29.88 13.14 29.88 13.14C31.74 11.08 31.85 9.27 31.97 7.43L32.09 7.55C30.76 7.61 29.36 7.69 28.5 6.77C27.97 6.21 27.66 5.29 27.66 4.37C27.66 3.79 27.79 3.19 28.08 2.67C28.81 1.36 30.57 0.62 32.16 0.71C33.76 0.79 35.21 1.71 36.01 3.18C36.42 3.92 36.66 4.8 36.66 5.79C36.66 6.76 36.43 7.83 35.9 8.99C34.84 11.31 32.56 13.98 30.29 16.63L30.26 16.45C31.52 17.03 32.84 17.64 33.39 18.89C33.59 19.34 33.69 19.87 33.69 20.41C33.69 21.36 33.39 22.36 32.81 23.02C31.91 24.06 30.34 24.22 29.35 23.97C28.33 23.72 27.9 23.02 27.75 22.29C27.7 22.06 27.68 21.82 27.68 21.58C27.68 21.08 27.77 20.56 27.85 20.06L28.01 20.18C26.66 20.81 25.35 21.43 24.68 22.41C24 23.39 23.95 24.75 23.89 26.15L23.73 26.04L23.76 26.03C25.21 25.45 26.69 24.85 28.12 25.07C29.54 25.3 30.88 26.36 32.19 27.39C32.23 27.42 32.24 27.47 32.23 27.52C32.21 27.56 32.17 27.6 32.13 27.6C29.9 27.71 27.83 27.84 27.31 29.01C27.21 29.23 27.17 29.49 27.17 29.79C27.17 31.07 28.03 32.92 28.92 34.46C29.22 34.98 29.53 35.46 29.82 35.92C30.1 36.36 30.37 36.79 30.63 37.23C31.09 38.02 31.5 38.85 31.8 39.83C32.14 40.96 32.34 42.29 32.34 43.58C32.34 44.69 32.2 45.77 31.87 46.68C31.16 48.65 29.62 49.74 28.11 50.81C28.06 50.85 27.99 50.84 27.95 50.79C27.92 50.73 27.93 50.66 27.98 50.63C29.5 49.55 30.98 48.49 31.65 46.6C31.97 45.73 32.11 44.67 32.11 43.58C32.11 42.31 31.92 41 31.58 39.9C31.29 38.94 30.89 38.13 30.43 37.34C30.18 36.91 29.91 36.48 29.63 36.04C29.33 35.58 29.03 35.1 28.73 34.58C27.83 33.04 26.94 31.14 26.94 29.79C26.94 29.47 26.98 29.18 27.1 28.92C27.69 27.58 29.98 27.48 32.11 27.37L32.05 27.57C30.72 26.53 29.43 25.52 28.08 25.3C26.73 25.09 25.31 25.65 23.84 26.25L23.82 26.26C23.78 26.27 23.74 26.27 23.71 26.24C23.68 26.22 23.66 26.18 23.66 26.14C23.71 24.76 23.77 23.32 24.49 22.28C25.21 21.24 26.58 20.6 27.91 19.97C27.95 19.96 28 19.96 28.03 19.99C28.07 20.01 28.08 20.05 28.08 20.1C27.99 20.6 27.91 21.1 27.91 21.58C27.91 21.8 27.93 22.03 27.98 22.24C28.11 22.91 28.49 23.52 29.4 23.75C30.34 23.99 31.81 23.82 32.64 22.87C33.17 22.26 33.46 21.32 33.46 20.41C33.46 19.9 33.37 19.4 33.18 18.98C32.67 17.83 31.45 17.25 30.16 16.66C30.13 16.64 30.1 16.61 30.09 16.58C30.09 16.54 30.1 16.5 30.12 16.48C32.39 13.82 34.65 11.18 35.69 8.89C36.21 7.76 36.43 6.72 36.43 5.79C36.43 4.84 36.2 3.99 35.81 3.29C35.04 1.89 33.67 1.02 32.15 0.94C30.62 0.85 28.96 1.57 28.28 2.79C28.01 3.26 27.89 3.82 27.89 4.37C27.89 5.25 28.19 6.1 28.66 6.61C29.44 7.44 30.72 7.38 32.08 7.32C32.11 7.32 32.14 7.33 32.16 7.35C32.19 7.37 32.2 7.41 32.2 7.44C32.08 9.29 31.97 11.17 30.05 13.29C30.04 13.3 30.03 13.32 30.02 13.32C29.07 14.37 27.67 15.48 26.29 16.58C24.9 17.69 23.52 18.79 22.57 19.83C20.69 21.91 20.52 23.74 20.36 25.6C20.36 25.65 20.33 25.68 20.29 25.7C20.25 25.72 20.21 25.71 20.17 25.68C19.13 24.82 18.11 23.97 16.73 23.67C15.33 23.37 13.61 23.62 12.83 24.66C12.47 25.14 12.31 25.8 12.31 26.47C12.31 27.25 12.53 28.03 12.92 28.53C13.63 29.47 14.92 29.51 15.66 29.01C16.4 28.52 16.61 27.49 16.82 26.39C16.83 26.36 16.84 26.33 16.87 26.31C16.9 26.3 16.93 26.29 16.96 26.3C18.07 26.62 19.23 26.95 19.9 27.84C20.2 28.24 20.4 28.75 20.56 29.28C20.65 29.61 20.74 29.94 20.81 30.26C20.88 30.57 20.95 30.86 21.03 31.12C21.32 32.12 21.74 32.75 22.16 33.4C22.19 33.43 22.19 33.46 22.18 33.5C22.17 33.53 22.14 33.56 22.11 33.57C20.06 34.42 18.06 35.24 17.2 36.81C16.84 37.46 16.67 38.24 16.67 39.02C16.67 40.12 17 41.2 17.56 41.89C18.53 43.07 20.21 43.17 21.97 43.26L21.89 43.46C21.25 42.85 20.57 42.21 20.5 41.16C20.5 41.1 20.5 41.05 20.5 40.99C20.5 39.96 21.07 38.62 22.7 38.15C24.39 37.67 27.24 38.15 28.73 40.19C29.43 41.17 29.82 42.5 29.82 43.81C29.82 45.24 29.36 46.68 28.31 47.62C26.32 49.4 22.28 49.35 19.48 48.78C16.67 48.22 15.01 47.13 14.5 45.87C14.38 45.57 14.33 45.26 14.33 44.95C14.33 43.97 14.85 42.94 15.34 41.95L15.47 42.11C14.12 42.37 12.82 42.62 11.91 43.52C10.99 44.42 10.45 45.98 9.89 47.59C9.88 47.62 9.86 47.66 9.83 47.67C9.8 47.68 9.76 47.68 9.73 47.67C8.97 47.32 8.25 46.99 7.4 47.21C6.94 47.33 6.44 47.6 5.9 47.94C5.66 48.09 5.42 48.25 5.16 48.42C4.91 48.59 4.63 48.77 4.37 48.93C3.25 49.64 2.07 50.22 0.9 50.81C0.84 50.83 0.77 50.81 0.74 50.75C0.71 50.7 0.74 50.63 0.79 50.6C1.97 50.01 3.14 49.43 4.24 48.74Z" stroke="#39A4A6" stroke-opacity="1.000000" stroke-width="1.400000" stroke-linejoin="round"/>
	<path id="path" d="M1.08 50.7L1.63 50.43C2.53 49.98 3.41 49.46 4.33 48.88C4.57 48.73 4.79 48.58 5.03 48.42L5.08 48.39C5.3 48.24 5.51 48.1 5.73 47.96C6.31 47.59 6.87 47.28 7.38 47.15C8.28 46.91 9.01 47.26 9.76 47.61C9.77 47.62 9.79 47.62 9.8 47.61C9.81 47.61 9.82 47.6 9.83 47.58C10.38 45.98 10.93 44.39 11.86 43.47C12.74 42.61 13.97 42.33 15.22 42.09C15.24 42.09 15.26 42.09 15.28 42.1C15.29 42.12 15.3 42.13 15.3 42.15C15.3 42.16 15.3 42.18 15.3 42.19C14.83 43.12 14.4 44.05 14.4 44.95C14.4 45.25 14.45 45.55 14.57 45.85C15.05 47.07 16.69 48.16 19.49 48.72C22.29 49.28 26.3 49.33 28.27 47.57C29.3 46.64 29.76 45.23 29.76 43.81C29.76 42.51 29.37 41.19 28.67 40.23C27.21 38.21 24.39 37.74 22.72 38.22C21.12 38.67 20.56 39.98 20.56 40.99C20.56 41.04 20.56 41.1 20.57 41.15C20.62 42.06 21.14 42.65 21.71 43.2C21.72 43.21 21.73 43.23 21.73 43.24C21.73 43.25 21.72 43.26 21.72 43.27C21.71 43.29 21.69 43.31 21.66 43.31C20.02 43.22 18.44 43.07 17.51 41.93C16.93 41.23 16.6 40.13 16.6 39.02C16.6 38.23 16.77 37.44 17.14 36.78C18.02 35.19 20.04 34.35 22.09 33.51C22.1 33.5 22.11 33.49 22.12 33.48C22.12 33.47 22.11 33.44 22.11 33.43C21.68 32.79 21.26 32.15 20.97 31.14C20.89 30.87 20.82 30.58 20.75 30.28C20.67 29.96 20.59 29.62 20.5 29.3C20.34 28.77 20.15 28.27 19.85 27.88C19.2 27.01 18.07 26.69 16.97 26.37L16.95 26.36C16.93 26.36 16.92 26.36 16.91 26.37C16.89 26.38 16.89 26.39 16.88 26.4C16.67 27.5 16.46 28.56 15.7 29.07C14.93 29.58 13.6 29.54 12.87 28.57C12.47 28.05 12.24 27.26 12.24 26.47C12.24 25.79 12.41 25.11 12.78 24.62C13.58 23.56 15.34 23.3 16.74 23.61C18.14 23.91 19.17 24.77 20.22 25.63C20.23 25.64 20.25 25.65 20.27 25.64C20.28 25.63 20.29 25.62 20.3 25.6C20.46 23.73 20.62 21.88 22.53 19.79C23.48 18.74 24.86 17.64 26.25 16.53C27.63 15.43 29.02 14.32 29.97 13.28C29.98 13.27 29.99 13.26 30 13.25C31.9 11.14 32.02 9.28 32.13 7.44C32.13 7.42 32.12 7.41 32.12 7.4C32.11 7.39 32.09 7.38 32.08 7.38C30.73 7.45 29.42 7.51 28.62 6.65C28.13 6.13 27.83 5.26 27.83 4.37C27.83 3.81 27.95 3.24 28.22 2.76C28.91 1.51 30.61 0.79 32.15 0.87C33.7 0.95 35.09 1.84 35.87 3.26C36.26 3.97 36.49 4.83 36.49 5.79C36.49 6.73 36.27 7.78 35.75 8.92C34.7 11.22 32.44 13.87 30.17 16.52C30.16 16.53 30.16 16.54 30.16 16.55C30.16 16.57 30.17 16.59 30.19 16.6C30.19 16.6 30.21 16.61 30.22 16.61C31.49 17.2 32.73 17.78 33.24 18.95C33.43 19.38 33.52 19.89 33.52 20.41C33.52 21.34 33.23 22.29 32.69 22.91C31.84 23.89 30.34 24.05 29.39 23.81C28.45 23.58 28.05 22.94 27.91 22.26C27.87 22.04 27.85 21.81 27.85 21.58C27.85 21.09 27.93 20.59 28.01 20.09C28.01 20.07 28 20.05 27.99 20.04C27.98 20.03 27.96 20.03 27.94 20.03L27.9 20.05C26.58 20.67 25.24 21.3 24.54 22.32C23.84 23.34 23.78 24.74 23.73 26.13L23.73 26.15C23.73 26.16 23.73 26.18 23.75 26.19C23.76 26.2 23.78 26.2 23.79 26.2L23.82 26.18C25.28 25.6 26.72 25.02 28.09 25.24C29.38 25.44 30.61 26.36 31.85 27.33C31.86 27.35 31.87 27.36 31.87 27.38C31.86 27.41 31.84 27.45 31.81 27.45C29.74 27.56 27.7 27.72 27.16 28.95C27.05 29.19 27 29.48 27 29.79C27 31.13 27.89 33.01 28.78 34.55C29.08 35.06 29.39 35.54 29.68 36C29.96 36.44 30.23 36.87 30.49 37.3C30.95 38.09 31.35 38.91 31.64 39.88C31.98 40.99 32.17 42.3 32.17 43.58C32.17 44.68 32.03 45.75 31.71 46.63C31.04 48.51 29.4 49.64 27.95 50.67C27.95 50.68 27.93 50.78 27.93 50.78C27.35 50.95 1.08 50.7 1.08 50.7Z" fill="#39A4A6" fill-opacity="1.000000" fill-rule="nonzero"/>
	<path id="path" d="M0.89 50.6L0.94 50.63C2.09 51.2 3.25 51.77 4.36 52.46C4.63 52.64 4.9 52.81 5.16 52.99C5.41 53.15 5.66 53.32 5.91 53.47C6.44 53.81 6.94 54.07 7.39 54.19C8.24 54.41 8.96 54.08 9.72 53.73C9.75 53.72 9.79 53.71 9.82 53.73C9.85 53.74 9.87 53.77 9.88 53.8C10.43 55.41 10.98 56.98 11.9 57.88C12.81 58.78 14.11 59.03 15.46 59.29L15.33 59.45C14.84 58.46 14.32 57.43 14.32 56.45C14.32 56.14 14.37 55.83 14.49 55.53C15 54.27 16.66 53.18 19.47 52.61C22.27 52.05 26.31 52 28.3 53.78C29.35 54.72 29.81 56.15 29.81 57.59C29.81 58.9 29.42 60.23 28.72 61.21C27.23 63.25 24.38 63.72 22.69 63.24C21.06 62.78 20.49 61.44 20.49 60.41C20.49 60.35 20.49 60.3 20.49 60.24C20.56 59.19 21.24 58.55 21.88 57.94L21.96 58.14C20.2 58.23 18.52 58.32 17.55 59.51C16.99 60.2 16.66 61.28 16.66 62.37C16.66 63.16 16.83 63.94 17.19 64.59C18.05 66.16 20.05 66.98 22.1 67.83C22.13 67.84 22.16 67.87 22.17 67.9C22.18 67.94 22.17 67.97 22.15 68C21.73 68.65 21.31 69.28 21.02 70.28C20.94 70.54 20.87 70.83 20.8 71.14C20.72 71.46 20.65 71.79 20.55 72.12C20.39 72.64 20.2 73.16 19.89 73.56C19.22 74.45 18.06 74.78 16.95 75.1C16.92 75.11 16.89 75.1 16.86 75.08C16.83 75.07 16.82 75.04 16.81 75.01C16.6 73.9 16.39 72.88 15.65 72.39C14.91 71.89 13.62 71.93 12.91 72.87C12.52 73.37 12.3 74.15 12.3 74.93C12.3 75.6 12.46 76.26 12.82 76.74C13.6 77.78 15.32 78.03 16.72 77.73C18.1 77.43 19.12 76.58 20.16 75.72C20.2 75.69 20.24 75.68 20.28 75.7C20.32 75.72 20.35 75.75 20.35 75.8C20.51 77.66 20.68 79.49 22.56 81.57C23.51 82.61 24.89 83.71 26.28 84.81C27.66 85.92 29.06 87.03 30.01 88.08C30.02 88.08 30.03 88.1 30.04 88.11C31.96 90.23 32.07 92.11 32.19 93.96C32.19 93.99 32.18 94.02 32.15 94.05C32.13 94.07 32.1 94.08 32.07 94.08C30.71 94.02 29.43 93.96 28.66 94.79C28.18 95.3 27.88 96.15 27.88 97.03C27.88 97.58 28 98.14 28.27 98.61C28.95 99.83 30.61 100.55 32.14 100.46C33.66 100.38 35.03 99.51 35.8 98.11C36.19 97.4 36.42 96.56 36.42 95.61C36.42 94.67 36.2 93.63 35.68 92.51C34.64 90.22 32.38 87.58 30.11 84.92C30.09 84.9 30.08 84.86 30.08 84.82C30.09 84.79 30.12 84.76 30.15 84.74C31.43 84.15 32.67 83.57 33.17 82.42C33.36 82 33.45 81.5 33.45 80.99C33.45 80.07 33.16 79.14 32.63 78.53C31.8 77.58 30.33 77.41 29.39 77.65C28.48 77.88 28.1 78.49 27.97 79.16C27.92 79.37 27.9 79.59 27.9 79.82C27.9 80.3 27.98 80.8 28.07 81.3C28.07 81.34 28.06 81.39 28.02 81.41C27.99 81.44 27.94 81.44 27.9 81.42C26.57 80.8 25.2 80.16 24.48 79.12C23.76 78.07 23.7 76.64 23.65 75.25C23.65 75.21 23.67 75.18 23.7 75.16C23.73 75.13 23.77 75.13 23.81 75.14L23.83 75.15C25.3 75.74 26.72 76.31 28.07 76.1C29.42 75.88 30.71 74.87 32.04 73.83L32.1 74.03L32.07 74.03C29.95 73.92 27.67 73.81 27.09 72.48C26.97 72.22 26.93 71.93 26.93 71.61C26.93 70.25 27.82 68.35 28.71 66.82C29.02 66.3 29.32 65.82 29.62 65.36C29.9 64.92 30.17 64.49 30.42 64.06C30.88 63.27 31.28 62.46 31.57 61.5C31.91 60.4 32.1 59.09 32.1 57.82C32.1 56.72 31.96 55.67 31.64 54.8C30.97 52.92 29.5 51.88 27.99 50.83C27.93 50.79 27.92 50.72 27.96 50.66C28 50.61 28.07 50.6 28.12 50.64C29.62 51.69 31.16 52.76 31.86 54.72C32.18 55.62 32.33 56.71 32.33 57.82C32.33 59.11 32.13 60.44 31.79 61.57C31.49 62.55 31.08 63.38 30.62 64.18C30.36 64.61 30.09 65.04 29.81 65.48C29.52 65.95 29.21 66.42 28.91 66.94C28.02 68.47 27.16 70.32 27.16 71.61C27.16 71.91 27.2 72.17 27.3 72.39C27.81 73.56 29.87 73.68 32.09 73.8L32.12 73.8C32.16 73.8 32.21 73.84 32.22 73.88C32.23 73.93 32.22 73.98 32.18 74.01C30.87 75.04 29.53 76.1 28.1 76.32C26.68 76.55 25.2 75.95 23.75 75.37L23.72 75.36L23.88 75.25C23.94 76.65 23.99 78.01 24.67 78.99C25.34 79.97 26.65 80.58 28 81.22L27.84 81.34C27.76 80.84 27.67 80.32 27.67 79.82C27.67 79.58 27.69 79.34 27.74 79.11C27.89 78.38 28.32 77.68 29.34 77.43C30.33 77.18 31.9 77.34 32.8 78.38C33.38 79.04 33.68 80.04 33.68 80.99C33.68 81.53 33.58 82.06 33.38 82.51C32.84 83.76 31.52 84.36 30.26 84.95L30.29 84.77C32.55 87.42 34.83 90.08 35.89 92.41C36.42 93.56 36.65 94.64 36.65 95.61C36.65 96.6 36.41 97.48 36 98.22C35.2 99.69 33.75 100.61 32.15 100.69C30.56 100.78 28.8 100.04 28.07 98.72C27.78 98.21 27.65 97.61 27.65 97.03C27.65 96.11 27.96 95.19 28.49 94.63C29.35 93.71 30.75 93.79 32.08 93.85L31.96 93.97C31.84 92.13 31.73 90.32 29.87 88.26C29.85 88.24 29.86 88.25 29.84 88.23C28.9 87.2 27.53 86.1 26.14 84.99C24.75 83.89 23.36 82.78 22.39 81.72C20.45 79.59 20.29 77.69 20.12 75.82L20.31 75.9C19.27 76.75 18.21 77.64 16.77 77.95C15.34 78.26 13.5 78.03 12.64 76.88C12.24 76.35 12.07 75.64 12.07 74.93C12.07 74.11 12.3 73.28 12.72 72.73C13.52 71.68 14.95 71.64 15.78 72.19C16.61 72.75 16.83 73.89 17.04 74.97L16.89 74.88C18.02 74.55 19.09 74.24 19.71 73.42C19.99 73.05 20.18 72.57 20.33 72.05C20.42 71.73 20.5 71.4 20.58 71.08C20.65 70.78 20.72 70.48 20.8 70.21C21.1 69.18 21.54 68.52 21.96 67.87L22.01 68.04C19.99 67.21 17.9 66.35 16.99 64.7C16.6 64.01 16.43 63.19 16.43 62.37C16.43 61.24 16.77 60.11 17.37 59.36C18.42 58.08 20.22 58 21.95 57.91C22 57.91 22.04 57.94 22.06 57.98C22.08 58.02 22.07 58.08 22.04 58.11C21.39 58.72 20.78 59.3 20.72 60.26C20.72 60.31 20.72 60.36 20.72 60.41C20.72 61.36 21.24 62.59 22.75 63.02C24.37 63.48 27.12 63.02 28.53 61.07C29.21 60.14 29.58 58.86 29.58 57.59C29.58 56.2 29.13 54.84 28.15 53.95C26.25 52.25 22.32 52.28 19.51 52.84C16.72 53.4 15.16 54.47 14.71 55.61C14.6 55.89 14.55 56.16 14.55 56.45C14.55 57.37 15.04 58.34 15.54 59.35C15.56 59.39 15.55 59.44 15.53 59.47C15.5 59.51 15.46 59.52 15.41 59.51C14.08 59.26 12.71 59 11.74 58.05C10.77 57.09 10.21 55.46 9.66 53.87L9.82 53.94C9.07 54.28 8.28 54.65 7.33 54.41C6.84 54.29 6.32 54 5.78 53.67C5.54 53.51 5.29 53.35 5.04 53.18C4.77 53 4.51 52.83 4.23 52.66C3.14 51.98 1.99 51.41 0.83 50.83L0.79 50.81C0.73 50.78 0.7 50.71 0.73 50.65C0.76 50.6 0.83 50.57 0.89 50.6Z" fill="#39A4A6" fill-opacity="1.000000" fill-rule="nonzero"/>
	<path id="path" d="M0.94 50.63C2.09 51.2 3.25 51.77 4.36 52.46C4.63 52.64 4.9 52.81 5.16 52.99C5.41 53.15 5.66 53.32 5.91 53.47C6.44 53.81 6.94 54.07 7.39 54.19C8.24 54.41 8.96 54.08 9.72 53.73C9.75 53.72 9.79 53.71 9.82 53.73C9.85 53.74 9.87 53.77 9.88 53.8C10.43 55.41 10.98 56.98 11.9 57.88C12.81 58.78 14.11 59.03 15.46 59.29L15.33 59.45C14.84 58.46 14.32 57.43 14.32 56.45C14.32 56.14 14.37 55.83 14.49 55.53C15 54.27 16.66 53.18 19.47 52.61C22.27 52.05 26.31 52 28.3 53.78C29.35 54.72 29.81 56.15 29.81 57.59C29.81 58.9 29.42 60.23 28.72 61.21C27.23 63.25 24.38 63.72 22.69 63.24C21.06 62.78 20.49 61.44 20.49 60.41C20.49 60.35 20.49 60.3 20.49 60.24C20.56 59.19 21.24 58.55 21.88 57.94L21.96 58.14C20.2 58.23 18.52 58.32 17.55 59.51C16.99 60.2 16.66 61.28 16.66 62.37C16.66 63.16 16.83 63.94 17.19 64.59C18.05 66.16 20.05 66.98 22.1 67.83C22.13 67.84 22.16 67.87 22.17 67.9C22.18 67.94 22.17 67.97 22.15 68C21.73 68.65 21.31 69.28 21.02 70.28C20.94 70.54 20.87 70.83 20.8 71.14C20.72 71.46 20.65 71.79 20.55 72.12C20.39 72.64 20.2 73.16 19.89 73.56C19.22 74.45 18.06 74.78 16.95 75.1C16.92 75.11 16.89 75.1 16.86 75.08C16.83 75.07 16.82 75.04 16.81 75.01C16.6 73.9 16.39 72.88 15.65 72.39C14.91 71.89 13.62 71.93 12.91 72.87C12.52 73.37 12.3 74.15 12.3 74.93C12.3 75.6 12.46 76.26 12.82 76.74C13.6 77.78 15.32 78.03 16.72 77.73C18.1 77.43 19.12 76.58 20.16 75.72C20.2 75.69 20.24 75.68 20.28 75.7C20.32 75.72 20.35 75.75 20.35 75.8C20.51 77.66 20.68 79.49 22.56 81.57C23.51 82.61 24.89 83.71 26.28 84.81C27.66 85.92 29.06 87.03 30.01 88.08C30.02 88.08 30.03 88.1 30.04 88.11C31.96 90.23 32.07 92.11 32.19 93.96C32.19 93.99 32.18 94.02 32.15 94.05C32.13 94.07 32.1 94.08 32.07 94.08C30.71 94.02 29.43 93.96 28.66 94.79C28.18 95.3 27.88 96.15 27.88 97.03C27.88 97.58 28 98.14 28.27 98.61C28.95 99.83 30.61 100.55 32.14 100.46C33.66 100.38 35.03 99.51 35.8 98.11C36.19 97.4 36.42 96.56 36.42 95.61C36.42 94.67 36.2 93.63 35.68 92.51C34.64 90.22 32.38 87.58 30.11 84.92C30.09 84.9 30.08 84.86 30.08 84.82C30.09 84.79 30.12 84.76 30.15 84.74C31.43 84.15 32.67 83.57 33.17 82.42C33.36 82 33.45 81.5 33.45 80.99C33.45 80.07 33.16 79.14 32.63 78.53C31.8 77.58 30.33 77.41 29.39 77.65C28.48 77.88 28.1 78.49 27.97 79.16C27.92 79.37 27.9 79.59 27.9 79.82C27.9 80.3 27.98 80.8 28.07 81.3C28.07 81.34 28.06 81.39 28.02 81.41C27.99 81.44 27.94 81.44 27.9 81.42C26.57 80.8 25.2 80.16 24.48 79.12C23.76 78.07 23.7 76.64 23.65 75.25C23.65 75.21 23.67 75.18 23.7 75.16C23.73 75.13 23.77 75.13 23.81 75.14L23.83 75.15C25.3 75.74 26.72 76.31 28.07 76.1C29.42 75.88 30.71 74.87 32.04 73.83L32.1 74.03L32.07 74.03C29.95 73.92 27.67 73.81 27.09 72.48C26.97 72.22 26.93 71.93 26.93 71.61C26.93 70.25 27.82 68.35 28.71 66.82C29.02 66.3 29.32 65.82 29.62 65.36C29.9 64.92 30.17 64.49 30.42 64.06C30.88 63.27 31.28 62.46 31.57 61.5C31.91 60.4 32.1 59.09 32.1 57.82C32.1 56.72 31.96 55.67 31.64 54.8C30.97 52.92 29.5 51.88 27.99 50.83C27.93 50.79 27.92 50.72 27.96 50.66C28 50.61 28.07 50.6 28.12 50.64C29.62 51.69 31.16 52.76 31.86 54.72C32.18 55.62 32.33 56.71 32.33 57.82C32.33 59.11 32.13 60.44 31.79 61.57C31.49 62.55 31.08 63.38 30.62 64.18C30.36 64.61 30.09 65.04 29.81 65.48C29.52 65.95 29.21 66.42 28.91 66.94C28.02 68.47 27.16 70.32 27.16 71.61C27.16 71.91 27.2 72.17 27.3 72.39C27.81 73.56 29.87 73.68 32.09 73.8L32.12 73.8C32.16 73.8 32.21 73.84 32.22 73.88C32.23 73.93 32.22 73.98 32.18 74.01C30.87 75.04 29.53 76.1 28.1 76.32C26.68 76.55 25.2 75.95 23.75 75.37L23.72 75.36L23.88 75.25C23.94 76.65 23.99 78.01 24.67 78.99C25.34 79.97 26.65 80.58 28 81.22L27.84 81.34C27.76 80.84 27.67 80.32 27.67 79.82C27.67 79.58 27.69 79.34 27.74 79.11C27.89 78.38 28.32 77.68 29.34 77.43C30.33 77.18 31.9 77.34 32.8 78.38C33.38 79.04 33.68 80.04 33.68 80.99C33.68 81.53 33.58 82.06 33.38 82.51C32.84 83.76 31.52 84.36 30.26 84.95L30.29 84.77C32.55 87.42 34.83 90.08 35.89 92.41C36.42 93.56 36.65 94.64 36.65 95.61C36.65 96.6 36.41 97.48 36 98.22C35.2 99.69 33.75 100.61 32.15 100.69C30.56 100.78 28.8 100.04 28.07 98.72C27.78 98.21 27.65 97.61 27.65 97.03C27.65 96.11 27.96 95.19 28.49 94.63C29.35 93.71 30.75 93.79 32.08 93.85L31.96 93.97C31.84 92.13 31.73 90.32 29.87 88.26C29.85 88.24 29.86 88.25 29.84 88.23C28.9 87.2 27.53 86.1 26.14 84.99C24.75 83.89 23.36 82.78 22.39 81.72C20.45 79.59 20.29 77.69 20.12 75.82L20.31 75.9C19.27 76.75 18.21 77.64 16.77 77.95C15.34 78.26 13.5 78.03 12.64 76.88C12.24 76.35 12.07 75.64 12.07 74.93C12.07 74.11 12.3 73.28 12.72 72.73C13.52 71.68 14.95 71.64 15.78 72.19C16.61 72.75 16.83 73.89 17.04 74.97L16.89 74.88C18.02 74.55 19.09 74.24 19.71 73.42C19.99 73.05 20.18 72.57 20.33 72.05C20.42 71.73 20.5 71.4 20.58 71.08C20.65 70.78 20.72 70.48 20.8 70.21C21.1 69.18 21.54 68.52 21.96 67.87L22.01 68.04C19.99 67.21 17.9 66.35 16.99 64.7C16.6 64.01 16.43 63.19 16.43 62.37C16.43 61.24 16.77 60.11 17.37 59.36C18.42 58.08 20.22 58 21.95 57.91C22 57.91 22.04 57.94 22.06 57.98C22.08 58.02 22.07 58.08 22.04 58.11C21.39 58.72 20.78 59.3 20.72 60.26C20.72 60.31 20.72 60.36 20.72 60.41C20.72 61.36 21.24 62.59 22.75 63.02C24.37 63.48 27.12 63.02 28.53 61.07C29.21 60.14 29.58 58.86 29.58 57.59C29.58 56.2 29.13 54.84 28.15 53.95C26.25 52.25 22.32 52.28 19.51 52.84C16.72 53.4 15.16 54.47 14.71 55.61C14.6 55.89 14.55 56.16 14.55 56.45C14.55 57.37 15.04 58.34 15.54 59.35C15.56 59.39 15.55 59.44 15.53 59.47C15.5 59.51 15.46 59.52 15.41 59.51C14.08 59.26 12.71 59 11.74 58.05C10.77 57.09 10.21 55.46 9.66 53.87L9.82 53.94C9.07 54.28 8.28 54.65 7.33 54.41C6.84 54.29 6.32 54 5.78 53.67C5.54 53.51 5.29 53.35 5.04 53.18C4.77 53 4.51 52.83 4.23 52.66C3.14 51.98 1.99 51.41 0.83 50.83L0.79 50.81C0.73 50.78 0.7 50.71 0.73 50.65C0.76 50.6 0.83 50.57 0.89 50.6L0.94 50.63Z" stroke="#39A4A6" stroke-opacity="1.000000" stroke-width="1.400000" stroke-linejoin="round"/>
	<path id="path" d="M1.63 50.97C2.53 51.41 3.4 51.93 4.32 52.52C4.56 52.67 4.78 52.82 5.02 52.98L5.07 53.01C5.29 53.15 5.5 53.3 5.72 53.44C6.3 53.81 6.87 54.12 7.37 54.25C8.27 54.48 9 54.14 9.75 53.79C9.76 53.78 9.78 53.78 9.79 53.79C9.8 53.79 9.81 53.8 9.82 53.82C10.37 55.42 10.92 57.01 11.85 57.93C12.73 58.79 13.96 59.07 15.21 59.31C15.23 59.31 15.25 59.31 15.27 59.29C15.28 59.28 15.29 59.27 15.29 59.25C15.29 59.24 15.29 59.22 15.29 59.21C14.82 58.28 14.39 57.35 14.39 56.45C14.39 56.15 14.44 55.85 14.55 55.55C15.04 54.33 16.68 53.24 19.48 52.68C22.28 52.12 26.29 52.07 28.26 53.83C29.29 54.75 29.75 56.17 29.75 57.59C29.75 58.89 29.36 60.21 28.66 61.17C27.2 63.19 24.38 63.66 22.71 63.18C21.11 62.73 20.55 61.42 20.55 60.41C20.55 60.36 20.55 60.3 20.56 60.25C20.61 59.34 21.13 58.75 21.7 58.2C21.71 58.19 21.72 58.17 21.72 58.16C21.72 58.15 21.71 58.14 21.71 58.13C21.7 58.11 21.68 58.09 21.65 58.09C20.01 58.18 18.43 58.33 17.5 59.47C16.92 60.17 16.59 61.27 16.59 62.37C16.59 63.17 16.76 63.96 17.13 64.62C18.01 66.21 20.03 67.05 22.08 67.89C22.09 67.9 22.1 67.91 22.11 67.92C22.11 67.93 22.1 67.96 22.1 67.96C21.67 68.61 21.25 69.25 20.96 70.26C20.88 70.52 20.81 70.82 20.74 71.12C20.66 71.44 20.58 71.78 20.49 72.1C20.33 72.62 20.13 73.13 19.84 73.52C19.19 74.38 18.06 74.71 16.96 75.03L16.94 75.03C16.92 75.04 16.91 75.04 16.9 75.03C16.88 75.02 16.88 75.01 16.87 75C16.66 73.9 16.45 72.84 15.69 72.33C14.92 71.82 13.59 71.86 12.85 72.83C12.46 73.35 12.23 74.14 12.23 74.93C12.23 75.61 12.4 76.29 12.77 76.78C13.58 77.84 15.33 78.1 16.73 77.79C18.13 77.49 19.16 76.63 20.21 75.77C20.22 75.76 20.24 75.75 20.26 75.76C20.27 75.77 20.29 75.78 20.29 75.8C20.45 77.67 20.61 79.52 22.52 81.61C23.47 82.65 24.85 83.76 26.24 84.87C27.62 85.97 29.01 87.08 29.96 88.12C29.97 88.13 29.98 88.14 29.99 88.15C31.89 90.26 32.01 92.12 32.12 93.96C32.12 93.97 32.12 93.99 32.11 94C32.1 94.01 32.08 94.02 32.07 94.02C30.72 93.95 29.41 93.89 28.61 94.74C28.12 95.27 27.82 96.14 27.82 97.03C27.82 97.59 27.94 98.16 28.21 98.64C28.91 99.89 30.6 100.61 32.14 100.53C33.69 100.44 35.08 99.56 35.86 98.14C36.25 97.43 36.48 96.57 36.48 95.61C36.48 94.66 36.26 93.61 35.74 92.48C34.69 90.18 32.43 87.53 30.16 84.88C30.15 84.87 30.15 84.86 30.15 84.85C30.15 84.83 30.16 84.81 30.18 84.8C30.18 84.8 30.2 84.79 30.21 84.79C31.48 84.2 32.72 83.62 33.23 82.44C33.42 82.02 33.51 81.51 33.51 80.99C33.51 80.06 33.22 79.11 32.68 78.49C31.83 77.51 30.33 77.34 29.38 77.58C28.44 77.82 28.04 78.46 27.9 79.14C27.86 79.36 27.84 79.59 27.84 79.82C27.84 80.31 27.92 80.81 28 81.31C28 81.33 27.99 81.35 27.98 81.36C27.97 81.37 27.95 81.37 27.93 81.37L27.89 81.35C26.57 80.73 25.23 80.1 24.53 79.08C23.83 78.06 23.77 76.66 23.72 75.27L23.72 75.25C23.72 75.24 23.72 75.22 23.74 75.21C23.75 75.2 23.77 75.2 23.78 75.2L23.81 75.21C25.27 75.8 26.71 76.38 28.08 76.16C29.37 75.96 30.6 75.04 31.84 74.07C31.85 74.05 31.86 74.03 31.86 74.01C31.85 73.99 31.83 73.95 31.8 73.95C29.73 73.84 27.69 73.68 27.15 72.45C27.04 72.21 26.99 71.92 26.99 71.61C26.99 70.27 27.88 68.39 28.77 66.85C29.07 66.34 29.37 65.86 29.67 65.4C29.95 64.96 30.22 64.53 30.48 64.09C30.94 63.31 31.34 62.49 31.63 61.52C31.97 60.41 32.16 59.09 32.16 57.82C32.16 56.72 31.92 55.48 31.61 54.6C31.36 53.91 30.89 53.28 30.32 52.67C29.91 52.24 29.21 51.71 28.8 51.4C28.27 51 28.18 50.94 28.02 50.84C27.78 50.69 28.14 50.48 28.06 50.48C27.92 50.49 27.81 50.67 27.81 50.67C6.84 50.62 2.1 50.7 2.1 50.7C1.45 50.7 1.08 50.7 1.08 50.7L1.63 50.97Z" fill="#39A4A6" fill-opacity="1.000000" fill-rule="nonzero"/>
</svg>
