<svg width="30.000000" height="31.333435" viewBox="0 0 30 31.3334" fill="none" xmlns="http://www.w3.org/2000/svg" xmlns:xlink="http://www.w3.org/1999/xlink">
	<desc>
			Created with Pixso.
	</desc>
	<defs/>
	<path id="path" d="M13.9 0L12.49 0.1L11.1 0.32L9.74 0.68L8.59 1.08C8.59 1.09 8.58 1.09 8.59 1.1C8.59 1.1 8.59 1.11 8.6 1.11L9.52 1L10.65 0.97L11.78 1.04L12.9 1.21L14 1.47L15.08 1.83L16.12 2.28L17.12 2.81L18.06 3.44L18.95 4.14L19.78 4.91L20.54 5.76L21.21 6.66L21.81 7.62L22.33 8.63L22.75 9.68L23.08 10.77L23.32 11.87L23.46 13L23.5 14.13L23.45 15.26L23.29 16.38L23.04 17.49L22.7 18.57L22.26 19.61L21.74 20.61L21.13 21.57L20.44 22.46L19.68 23.29L18.85 24.06L17.95 24.75L17 25.36L16 25.88L14.96 26.32L13.89 26.66L12.79 26.92L11.67 27.07L10.54 27.13L9.41 27.09L8.29 26.96L7.19 26.72L6.1 26.4L5.06 25.98L4.05 25.47L3.09 24.88L2.18 24.21L1.33 23.46L0.56 22.64L0.02 21.96C0.01 21.96 0.01 21.96 0.01 21.96C0 21.96 0 21.96 0 21.96C0 21.96 -0.01 21.97 0 21.97L0.43 22.9L1.08 24.02L1.82 25.09L2.64 26.1L3.55 27.03L4.53 27.89L5.58 28.66L6.69 29.34L7.85 29.93L9.05 30.42L10.3 30.8L11.57 31.08L12.86 31.26L14.16 31.33L15.46 31.29L16.75 31.14L18.03 30.89L19.28 30.53L20.49 30.07L21.67 29.5L22.79 28.85L23.86 28.1L24.93 27.2L25.93 26.2L26.82 25.11L27.62 23.95L28.31 22.73L28.89 21.45L29.35 20.12L29.69 18.75L29.91 17.36L30 15.95L29.96 14.55L29.8 13.15L29.51 11.77L29.1 10.43L28.57 9.12L27.92 7.87L27.17 6.68L26.31 5.57L25.36 4.53L24.32 3.59L23.19 2.74L22 1.99L20.74 1.36L19.43 0.84L18.08 0.45L16.7 0.17L15.3 0.02L13.9 0Z" fill="#39A4A6" fill-opacity="1.000000" fill-rule="nonzero"/>
	<path id="path" d="M9.36 8.22C9.35 8.22 9.35 8.23 9.35 8.23C9.28 8.54 9.18 8.88 9.02 9.27C8.96 9.43 8.89 9.6 8.81 9.77C8.73 9.95 8.65 10.15 8.57 10.35C8.4 10.77 8.25 11.2 8.2 11.64C8.11 12.48 8.36 13.31 9.07 14.08C9.36 14.39 9.71 14.69 10.07 14.98L10.08 14.99C10.43 15.28 10.78 15.58 11.06 15.88C11.2 16.04 11.33 16.2 11.42 16.36C11.8 16.99 11.73 17.67 11.66 18.37C11.64 18.55 11.62 18.74 11.61 18.92C11.55 19.82 11.67 20.76 12.06 21.32C12.43 21.85 13.05 22.06 13.68 22.25C13.68 22.25 13.68 22.25 13.68 22.25C13.69 22.25 13.69 22.25 13.69 22.25C13.69 22.24 13.69 22.24 13.68 22.24C13.16 21.95 12.66 21.65 12.34 21.22C11.99 20.75 11.87 20.14 12.04 19.18C12.07 19 12.11 18.81 12.15 18.61C12.2 18.39 12.25 18.17 12.29 17.94C12.41 17.24 12.45 16.5 12.12 15.86C11.78 15.2 11.03 14.64 10.34 14.12C9.94 13.83 9.56 13.54 9.29 13.27C8.54 12.5 8.6 11.75 8.71 11.14C8.78 10.75 8.87 10.42 8.96 10.09C9.01 9.9 9.07 9.7 9.12 9.48C9.21 9.1 9.29 8.67 9.36 8.23C9.36 8.23 9.36 8.22 9.36 8.22Z" fill="#39A4A6" fill-opacity="1.000000" fill-rule="nonzero"/>
	<path id="path" d="M6.44 1.68C6.36 1.68 6.29 1.71 6.24 1.76C6.07 1.93 6.05 2.42 6.03 2.92C6.03 2.92 6.03 2.92 6.03 2.92C5.87 3.26 5.71 3.59 5.65 4.1C5.59 4.61 5.64 5.28 5.66 5.73L5.66 5.74C5.69 6.18 5.71 6.4 5.72 6.61C5.72 6.62 5.72 6.62 5.72 6.62C4.62 7.71 3.53 8.8 3.14 9.87C2.92 10.47 2.92 11.07 2.93 11.62L2.93 11.62C2.93 12.04 2.93 12.42 2.83 12.75C2.67 13.29 2.25 13.69 1.92 13.99C1.78 14.12 1.65 14.24 1.57 14.34C1.31 14.68 1.54 14.89 1.75 15.06C1.79 15.09 1.83 15.12 1.87 15.15L1.87 15.16C1.91 15.18 1.94 15.21 1.97 15.23C2.08 15.32 2.16 15.4 2.2 15.49C2.26 15.63 2.19 15.79 2.09 15.89C2.06 15.93 2.03 15.95 2 15.98C1.97 16 1.94 16.02 1.93 16.03C1.9 16.06 1.89 16.09 1.88 16.13C1.88 16.23 1.99 16.41 2.11 16.5C2.23 16.6 2.35 16.62 2.49 16.64C2.49 16.64 2.49 16.64 2.49 16.64C2.49 16.65 2.49 16.65 2.49 16.65C2.37 16.78 2.25 16.9 2.21 17.01C2.18 17.11 2.21 17.2 2.28 17.26C2.3 17.28 2.32 17.29 2.35 17.31C2.37 17.33 2.4 17.35 2.43 17.38C2.46 17.4 2.48 17.43 2.5 17.47C2.58 17.59 2.62 17.79 2.62 17.99C2.62 18.1 2.61 18.21 2.59 18.32L2.59 18.32C2.58 18.39 2.57 18.46 2.57 18.52C2.56 18.67 2.6 18.77 2.67 18.85C2.73 18.92 2.83 18.97 2.95 18.97C2.96 18.97 2.97 18.97 2.99 18.97C3.04 18.96 3.11 18.95 3.21 18.92C3.35 18.89 3.57 18.84 3.95 18.77C4.25 18.72 4.65 18.65 5.07 18.65C5.58 18.65 6.14 18.75 6.6 19.06C7.18 19.46 7.6 20.21 8.06 21C8.26 21.36 8.47 21.72 8.7 22.07C9.43 23.19 10.39 24.14 11.36 25.08C11.36 25.08 11.36 25.08 11.36 25.08C11.36 25.08 11.37 25.08 11.37 25.08L11.36 24.06C11.36 24.06 11.36 24.05 11.36 24.05C10.66 23.59 9.96 23.12 9.22 22.25C8.89 21.85 8.55 21.37 8.22 20.89C7.89 20.44 7.58 19.98 7.27 19.62C7.2 19.54 7.13 19.45 7.05 19.38C6.39 18.67 5.82 18.54 5.22 18.53C5.18 18.53 5.14 18.53 5.11 18.53C4.92 18.53 4.74 18.53 4.57 18.54C4.41 18.55 4.25 18.56 4.11 18.56C3.93 18.56 3.78 18.55 3.65 18.51C3.31 18.39 3.27 18.07 3.28 17.78C3.28 17.68 3.29 17.58 3.31 17.49L3.31 17.48C3.32 17.4 3.32 17.33 3.33 17.26C3.33 17.17 3.33 17.1 3.31 17.03C3.28 16.95 3.23 16.88 3.18 16.81C3.14 16.76 3.1 16.71 3.08 16.65C3.07 16.63 3.07 16.61 3.07 16.59C3.07 16.52 3.12 16.44 3.16 16.37C3.2 16.3 3.24 16.24 3.24 16.19C3.24 16.19 3.24 16.18 3.24 16.18C3.24 16.18 3.24 16.18 3.24 16.18C3.23 16.18 3.23 16.17 3.24 16.17C3.24 16.17 3.24 16.17 3.24 16.16C3.24 16.16 3.24 16.16 3.24 16.15C3.23 16.09 3.14 16.04 3.03 15.98C2.97 15.95 2.91 15.91 2.86 15.87C2.73 15.77 2.71 15.61 2.77 15.48C2.79 15.42 2.84 15.37 2.88 15.31C2.94 15.25 2.99 15.19 3.03 15.11C3.03 15.1 3.03 15.1 3.03 15.1C3.1 14.94 3.1 14.73 2.88 14.61C2.83 14.58 2.76 14.56 2.7 14.54L2.69 14.54C2.62 14.51 2.55 14.49 2.49 14.45C2.35 14.38 2.26 14.26 2.37 14.04C2.44 13.88 2.6 13.68 2.79 13.45C3.06 13.11 3.38 12.71 3.58 12.29C3.62 12.2 3.66 12.1 3.69 12.01C3.82 11.61 3.81 11.21 3.8 10.79C3.79 10.36 3.77 9.91 3.92 9.46C3.92 9.45 3.93 9.44 3.93 9.43C4.23 8.53 5.17 7.59 6.1 6.65C6.1 6.65 6.11 6.65 6.11 6.64C6.11 6.23 6.11 5.8 6.2 5.52C6.28 5.22 6.45 5.06 6.6 5.03C6.62 5.03 6.63 5.03 6.65 5.03C6.78 5.03 6.87 5.11 6.91 5.2C6.96 5.3 6.92 5.41 6.84 5.5C6.76 5.57 6.63 5.63 6.5 5.68C6.5 5.68 6.5 5.68 6.5 5.68C6.5 5.69 6.5 5.69 6.51 5.69C6.63 5.76 6.75 5.83 6.89 5.83C6.92 5.83 6.94 5.83 6.97 5.82C7.15 5.79 7.36 5.64 7.43 5.39C7.5 5.14 7.42 4.79 7.22 4.61C7.12 4.52 6.98 4.47 6.86 4.44L6.86 4.44L6.85 4.44C6.77 4.41 6.7 4.38 6.65 4.35C6.64 4.34 6.64 4.33 6.63 4.32C6.58 4.25 6.63 4.13 6.69 4L6.69 3.99C6.72 3.92 6.76 3.84 6.78 3.76C6.84 3.53 6.79 3.31 6.74 3.08C6.74 3.07 6.74 3.07 6.75 3.07C6.83 3 6.91 2.92 7.06 2.92C7.1 2.92 7.15 2.93 7.21 2.95C7.45 3.02 7.83 3.25 8.02 3.67C8.21 4.09 8.21 4.69 8.08 5.18C7.96 5.63 7.71 5.98 7.46 6.32C7.46 6.32 7.46 6.33 7.46 6.33C7.46 6.33 7.47 6.33 7.47 6.33C7.47 6.33 7.47 6.33 7.47 6.33C7.68 6.19 7.88 6.05 8.04 5.78C8.21 5.5 8.33 5.07 8.44 4.64C8.44 4.63 8.45 4.63 8.45 4.63C8.45 4.63 8.45 4.63 8.46 4.63C8.55 4.76 8.64 4.88 8.78 4.89C8.79 4.9 8.8 4.9 8.81 4.9C8.95 4.9 9.12 4.81 9.23 4.69C9.34 4.56 9.39 4.39 9.44 4.22C9.44 4.21 9.44 4.21 9.44 4.21C9.44 4.21 9.44 4.21 9.43 4.21L9.43 4.21C9.27 4.3 9.1 4.39 8.97 4.39C8.91 4.39 8.85 4.37 8.8 4.31C8.73 4.21 8.7 4.03 8.66 3.8L8.66 3.8C8.62 3.59 8.58 3.34 8.49 3.08C8.31 2.55 7.95 1.99 7.63 1.91C7.6 1.9 7.57 1.9 7.54 1.9C7.35 1.9 7.18 2.04 7.03 2.15L7.03 2.15C6.95 2.22 6.87 2.27 6.81 2.3C6.79 2.31 6.76 2.31 6.74 2.31C6.62 2.31 6.55 2.18 6.55 2.08C6.55 2.05 6.56 2.02 6.57 1.99C6.62 1.88 6.79 1.87 6.96 1.87C6.96 1.87 6.96 1.87 6.97 1.87C6.97 1.87 6.97 1.87 6.97 1.86C6.97 1.86 6.97 1.86 6.97 1.86C6.97 1.86 6.97 1.86 6.97 1.86C6.78 1.77 6.59 1.68 6.44 1.68Z" fill="#39A4A6" fill-opacity="1.000000" fill-rule="nonzero"/>
	<path id="path" d="M17.7 1.48C17.69 1.48 17.69 1.49 17.69 1.49C17.69 1.49 17.69 1.5 17.69 1.5L18.14 1.72L18.89 2.14L19.63 2.59L20.33 3.08L21.02 3.61L21.67 4.17L22.3 4.76L22.9 5.38L23.47 6.02L24.01 6.72L24.53 7.44L25 8.18L25.43 8.95L25.83 9.74L26.19 10.54L26.5 11.37L26.77 12.21L26.93 12.8C26.93 12.81 26.94 12.81 26.94 12.81C26.95 12.81 26.95 12.81 26.95 12.8L26.9 12.28L26.77 11.49L26.59 10.71L26.37 9.94L26.1 9.19L25.78 8.46L25.42 7.75L25.02 7.06L24.57 6.39L24.09 5.76L23.55 5.14L22.98 4.55L22.37 4.01L21.73 3.5L21.06 3.03L20.36 2.61L19.63 2.23L18.88 1.9L18.12 1.61L17.7 1.48Z" fill="#FEFEFE" fill-opacity="1.000000" fill-rule="nonzero"/>
	<path id="path" d="M4.1 26.55C4.1 26.55 4.1 26.55 4.1 26.55C4.1 26.55 4.1 26.56 4.1 26.56L4.28 26.77L4.66 27.17L5.06 27.55L5.49 27.9L5.93 28.23L6.39 28.53L6.87 28.81L7.36 29.06L7.87 29.27L8.39 29.46L8.91 29.62L9.45 29.76L10 29.86L10.55 29.92L11.11 29.96L11.67 29.96L12.22 29.93L12.78 29.87L13.32 29.78L13.87 29.66L14.4 29.5L14.64 29.42C14.64 29.42 14.64 29.42 14.64 29.42C14.64 29.41 14.64 29.41 14.64 29.41C14.64 29.41 14.63 29.41 14.63 29.41L14.33 29.47L13.7 29.55L13.07 29.6L12.43 29.62L11.8 29.61L11.17 29.56L10.54 29.49L9.92 29.38L9.3 29.24L8.64 29.06L7.99 28.84L7.35 28.59L6.73 28.3L6.12 27.98L5.53 27.62L4.97 27.23L4.42 26.82L4.11 26.55C4.11 26.55 4.1 26.55 4.1 26.55Z" fill="#FEFEFE" fill-opacity="1.000000" fill-rule="nonzero"/>
	<path id="path" d="M9.79 4.76C9.79 4.76 9.78 4.76 9.77 4.76C9.38 4.77 9.02 5.12 8.76 5.44C8.5 5.75 8.35 6.03 8.2 6.3C8.2 6.31 8.19 6.31 8.19 6.31C8.18 6.31 8.18 6.3 8.18 6.3C8.16 6.21 8.15 6.13 8.15 6.03C8.16 5.95 8.17 5.86 8.18 5.77L8.18 5.77C8.11 5.89 8.04 6.01 8.01 6.11C7.98 6.22 8.01 6.31 8.04 6.39C8.04 6.4 8.04 6.4 8.04 6.4L8.04 6.41C7.95 6.52 7.85 6.64 7.7 6.64C7.68 6.64 7.65 6.63 7.63 6.63C7.45 6.59 7.21 6.39 6.97 6.19C7.01 6.25 7.04 6.31 7.05 6.36C7.08 6.42 7.08 6.47 7.07 6.51C7.07 6.52 7.07 6.52 7.06 6.52C6.99 6.53 6.92 6.54 6.85 6.54C6.76 6.54 6.68 6.53 6.62 6.49C6.53 6.45 6.47 6.36 6.41 6.26L6.41 6.26C6.44 6.42 6.49 6.55 6.59 6.62C6.67 6.67 6.77 6.69 6.9 6.69C6.98 6.69 7.06 6.68 7.15 6.68C7.15 6.68 7.16 6.68 7.16 6.68C7.23 6.77 7.3 6.87 7.44 6.91C7.52 6.93 7.62 6.94 7.74 6.94C7.83 6.94 7.93 6.93 8.03 6.93C8.03 6.93 8.03 6.93 8.04 6.93C8.23 7.14 8.43 7.35 8.67 7.43C8.75 7.45 8.83 7.46 8.92 7.46C9.09 7.46 9.28 7.43 9.47 7.39L9.5 6.94L9.49 6.94C9.31 7.1 9.11 7.26 8.87 7.26C8.87 7.26 8.87 7.26 8.87 7.26C8.61 7.26 8.31 7.07 8.23 6.86C8.16 6.65 8.3 6.41 8.43 6.18L8.44 6.18C8.44 6.17 8.44 6.17 8.45 6.17C8.45 6.17 8.46 6.18 8.46 6.18C8.53 6.43 8.6 6.68 8.81 6.77C8.87 6.79 8.94 6.8 9.01 6.8C9.19 6.8 9.38 6.72 9.46 6.57C9.57 6.36 9.48 6.01 9.37 5.65L9.37 5.65C9.37 5.95 9.36 6.25 9.21 6.37C9.16 6.41 9.08 6.43 9.01 6.43C8.86 6.43 8.7 6.34 8.68 6.15C8.66 5.88 8.95 5.42 9.26 5.2C9.43 5.07 9.62 5.02 9.78 5.02C9.91 5.02 10.04 5.05 10.14 5.11C10.38 5.22 10.52 5.45 10.52 5.73C10.52 6.02 10.38 6.37 10.2 6.57C10.02 6.78 9.81 6.84 9.61 6.9L9.61 6.9L9.61 6.9L9.57 7.36L9.58 7.36L9.57 7.36C9.88 7.19 10.19 7.02 10.41 7.02C10.43 7.02 10.46 7.02 10.48 7.03C10.7 7.07 10.8 7.35 10.89 7.63L10.89 7.63C11.02 7.29 11.14 6.96 11.06 6.81C11.01 6.7 10.86 6.67 10.67 6.67C10.58 6.67 10.49 6.68 10.39 6.68C10.39 6.68 10.38 6.68 10.38 6.68C10.38 6.67 10.38 6.67 10.38 6.66C10.61 6.24 10.83 5.82 10.72 5.45C10.61 5.09 10.19 4.76 9.79 4.76Z" fill="#39A4A6" fill-opacity="1.000000" fill-rule="nonzero"/>
</svg>
