<svg width="28.000000" height="28.985718" viewBox="0 0 28 28.9857" fill="none" xmlns="http://www.w3.org/2000/svg" xmlns:xlink="http://www.w3.org/1999/xlink">
	<desc>
			Created with Pixso.
	</desc>
	<defs/>
	<path id="path" d="M1.5 5.1C1.5 17.46 11.13 27.48 23.02 27.48C23.56 27.48 24.09 27.46 24.62 27.42C25.22 27.37 25.52 27.35 25.8 27.19C26.03 27.05 26.24 26.81 26.36 26.56C26.5 26.27 26.5 25.92 26.5 25.23L26.5 21.16C26.5 20.58 26.5 20.28 26.4 20.03C26.32 19.81 26.19 19.62 26.02 19.46C25.82 19.29 25.56 19.19 25.03 18.99L20.58 17.3C19.97 17.07 19.66 16.96 19.37 16.98C19.11 16.99 18.86 17.08 18.65 17.24C18.42 17.41 18.25 17.7 17.91 18.29L16.77 20.26C13.09 18.53 10.11 15.42 8.44 11.6L10.34 10.42C10.9 10.07 11.18 9.89 11.35 9.64C11.5 9.43 11.58 9.17 11.6 8.9C11.62 8.6 11.51 8.28 11.29 7.65L9.67 3.02C9.47 2.47 9.38 2.19 9.21 1.99C9.06 1.81 8.87 1.68 8.66 1.59C8.42 1.5 8.14 1.5 7.58 1.5L3.66 1.5C3 1.5 2.66 1.5 2.38 1.64C2.14 1.76 1.91 1.98 1.78 2.22C1.62 2.5 1.6 2.82 1.55 3.45C1.51 3.99 1.5 4.55 1.5 5.1Z" fill="#000000" fill-opacity="0" fill-rule="nonzero"/>
	<path id="path" d="M23.02 27.48C23.56 27.48 24.09 27.46 24.62 27.42C25.22 27.37 25.52 27.35 25.8 27.19C26.03 27.05 26.24 26.81 26.36 26.56C26.5 26.27 26.5 25.92 26.5 25.23L26.5 21.16C26.5 20.58 26.5 20.28 26.4 20.03C26.32 19.81 26.19 19.62 26.02 19.46C25.82 19.29 25.56 19.19 25.03 18.99L20.58 17.3C19.97 17.07 19.66 16.96 19.37 16.98C19.11 16.99 18.86 17.08 18.65 17.24C18.42 17.41 18.25 17.7 17.91 18.29L16.77 20.26C13.09 18.53 10.11 15.42 8.44 11.6L10.34 10.42C10.9 10.07 11.18 9.89 11.35 9.64C11.5 9.43 11.58 9.17 11.6 8.9C11.62 8.6 11.51 8.28 11.29 7.65L9.67 3.02C9.47 2.47 9.38 2.19 9.21 1.99C9.06 1.81 8.87 1.68 8.66 1.59C8.42 1.5 8.14 1.5 7.58 1.5L3.66 1.5C3 1.5 2.66 1.5 2.38 1.64C2.14 1.76 1.91 1.98 1.78 2.22C1.62 2.5 1.6 2.82 1.55 3.45C1.51 3.99 1.5 4.55 1.5 5.1C1.5 17.46 11.13 27.48 23.02 27.48Z" stroke="#000000" stroke-opacity="1.000000" stroke-width="3.000000" stroke-linejoin="round"/>
</svg>
