<svg width="51.000000" height="46.000000" viewBox="0 0 51 46" fill="none" xmlns="http://www.w3.org/2000/svg" xmlns:xlink="http://www.w3.org/1999/xlink">
	<desc>
			Created with Pixso.
	</desc>
	<defs/>
	<path id="Rectangle 3" d="M0 34.05C0 24.98 7.35 17.62 16.42 17.62C25.48 17.62 32.84 24.98 32.84 34.05L32.84 36.19C32.84 39.61 30.07 42.38 26.65 42.38L6.18 42.38C2.77 42.38 0 39.61 0 36.19L0 34.05Z" fill="#F5E9E1" fill-opacity="1.000000" fill-rule="evenodd"/>
	<path id="Rectangle 3" d="M32.84 36.19C32.84 39.61 30.07 42.38 26.65 42.38L6.18 42.38C2.77 42.38 0 39.61 0 36.19L0 34.05C0 24.98 7.35 17.62 16.42 17.62C25.48 17.62 32.84 24.98 32.84 34.05L32.84 36.19ZM30.34 35.27C30.34 37.81 28.27 39.88 25.73 39.88L7.1 39.88C4.56 39.88 2.5 37.81 2.5 35.27L2.5 34.05C2.5 26.36 8.73 20.12 16.42 20.12C24.1 20.12 30.34 26.36 30.34 34.05L30.34 35.27Z" fill="#000000" fill-opacity="1.000000" fill-rule="evenodd"/>
	<ellipse id="Oval 2" cx="16.394043" cy="9.429932" rx="9.473584" ry="9.429911" fill="#F5E9E1" fill-opacity="1.000000"/>
	<ellipse id="Oval 2" cx="16.394043" cy="9.429932" rx="8.223584" ry="8.179911" stroke="#000000" stroke-opacity="1.000000" stroke-width="2.500000"/>
	<path id="Rectangle 3" d="M18.15 34.05C18.15 24.98 25.51 17.62 34.57 17.62C43.64 17.62 51 24.98 51 34.05L51 36.19C51 39.61 48.22 42.38 44.81 42.38L24.34 42.38C20.92 42.38 18.15 39.61 18.15 36.19L18.15 34.05Z" fill="#F5E9E1" fill-opacity="1.000000" fill-rule="evenodd"/>
	<path id="Rectangle 3" d="M51 36.19C51 39.61 48.22 42.38 44.81 42.38L24.34 42.38C20.92 42.38 18.15 39.61 18.15 36.19L18.15 34.05C18.15 24.98 25.51 17.62 34.57 17.62C43.64 17.62 51 24.98 51 34.05L51 36.19ZM48.5 35.27C48.5 37.81 46.43 39.88 43.89 39.88L25.26 39.88C22.72 39.88 20.65 37.81 20.65 35.27L20.65 34.05C20.65 26.36 26.89 20.12 34.57 20.12C42.26 20.12 48.5 26.36 48.5 34.05L48.5 35.27Z" fill="#000000" fill-opacity="1.000000" fill-rule="evenodd"/>
	<ellipse id="Oval 2" cx="34.552246" cy="9.429932" rx="9.473584" ry="9.429911" fill="#F5E9E1" fill-opacity="1.000000"/>
	<ellipse id="Oval 2" cx="34.552246" cy="9.429932" rx="8.223584" ry="8.179911" stroke="#000000" stroke-opacity="1.000000" stroke-width="2.500000"/>
	<path id="Rectangle 3" d="M9.75 36.94C9.75 28.27 16.77 21.24 25.44 21.24C34.11 21.24 41.13 28.27 41.13 36.94L41.13 39.81C41.13 43.22 38.36 46 34.94 46L15.93 46C12.52 46 9.75 43.22 9.75 39.81L9.75 36.94Z" fill="#F5E9E1" fill-opacity="1.000000" fill-rule="evenodd"/>
	<path id="Rectangle 3" d="M41.13 39.81C41.13 43.22 38.36 46 34.94 46L15.93 46C12.52 46 9.75 43.22 9.75 39.81L9.75 36.94C9.75 28.27 16.77 21.24 25.44 21.24C34.11 21.24 41.13 28.27 41.13 36.94L41.13 39.81ZM38.63 38.89C38.63 41.43 36.57 43.5 34.02 43.5L16.85 43.5C14.31 43.5 12.25 41.43 12.25 38.89L12.25 36.94C12.25 29.65 18.15 23.74 25.44 23.74C32.72 23.74 38.63 29.65 38.63 36.94L38.63 38.89Z" fill="#000000" fill-opacity="1.000000" fill-rule="evenodd"/>
	<ellipse id="Oval 2" cx="25.417969" cy="13.049194" rx="9.053253" ry="9.429911" fill="#F5E9E1" fill-opacity="1.000000"/>
	<ellipse id="Oval 2" cx="25.417969" cy="13.049194" rx="7.803253" ry="8.179911" stroke="#000000" stroke-opacity="1.000000" stroke-width="2.500000"/>
</svg>
