<svg width="26.717773" height="14.587769" viewBox="0 0 26.7178 14.5878" fill="none" xmlns="http://www.w3.org/2000/svg" xmlns:xlink="http://www.w3.org/1999/xlink">
	<desc>
			Created with Pixso.
	</desc>
	<defs/>
	<path id="path" d="M26.1 0.98C26.29 0.41 26.1 0 25.22 0L22.29 0C21.55 0 21.21 0.36 21.02 0.75C21.02 0.75 19.54 4.09 17.43 6.25C16.75 6.88 16.44 7.07 16.07 7.07C15.88 7.07 15.61 6.88 15.61 6.31L15.61 0.98C15.61 0.3 15.4 0 14.78 0L10.18 0C9.72 0 9.44 0.31 9.44 0.61C9.44 1.26 10.49 1.41 10.6 3.23L10.6 7.19C10.6 8.06 10.43 8.21 10.06 8.21C9.07 8.21 6.66 4.87 5.23 1.04C4.95 0.3 4.67 0 3.92 0L1 0C0.16 0 0 0.36 0 0.75C0 1.47 0.99 5 4.61 9.67C7.03 12.85 10.43 14.58 13.53 14.58C15.38 14.58 15.61 14.2 15.61 13.54L15.61 11.13C15.61 10.36 15.79 10.21 16.38 10.21C16.81 10.21 17.55 10.41 19.29 11.94C21.27 13.76 21.6 14.58 22.71 14.58L25.63 14.58C26.47 14.58 26.89 14.2 26.65 13.44C26.38 12.69 25.44 11.59 24.18 10.29C23.5 9.55 22.48 8.75 22.17 8.36C21.73 7.84 21.86 7.62 22.17 7.16C22.17 7.16 25.73 2.55 26.1 0.98Z" fill="#39A4A6" fill-opacity="1.000000" fill-rule="nonzero"/>
</svg>
