<svg width="653" height="236" viewBox="0 0 653 236" fill="none" xmlns="http://www.w3.org/2000/svg">
<path fill-rule="evenodd" clip-rule="evenodd" d="M323.833 2.25001C323.064 3.48801 321.193 6.97501 319.674 10C318.155 13.025 315.828 17.3 314.504 19.5C313.179 21.7 311.764 24.175 311.36 25C310.955 25.825 309.239 28.525 307.547 31C301.494 39.852 300.704 42.108 301.225 49.066C301.49 52.605 302.012 56.199 302.385 57.053C302.905 58.244 301.714 59.142 297.281 60.904C287.285 64.878 282.809 67.387 279.098 71.098C274.797 75.399 273.002 77.637 272.994 78.708C272.99 79.144 272.336 80.749 271.54 82.276C270.325 84.604 268 94.397 268 97.184C268 98.645 271.922 98.046 275.739 96C277.791 94.9 280.238 94 281.176 94C282.114 94 283.16 93.55 283.5 93C284.372 91.588 291.591 91.756 294.264 93.25C304.563 99.007 310.219 111.768 312.202 133.726C314.691 161.286 309.8 176.762 296.194 184.38C290.719 187.446 272.522 187.435 265.878 184.363C252.52 178.186 244.84 163.291 247.016 147.782C248.239 139.069 252.202 134.263 259.268 132.922C265.1 131.815 270.088 133.35 274.111 137.49C279.629 143.17 280.353 142.433 279.752 131.75C278.87 116.093 273.702 107.942 262.198 104.067C254.697 101.54 247.87 101.443 239.762 103.75C234.862 105.144 232.584 106.533 228.556 110.582C225.775 113.376 222.375 117.876 221 120.582C219.625 123.287 218.228 125.725 217.895 126C217.562 126.275 216.752 128.152 216.094 130.17C214.39 135.398 212.883 136.38 209.37 134.549C204.614 132.07 199.698 130.189 196.033 129.447C194.126 129.061 191.876 128.395 191.033 127.966C190.19 127.538 187.58 126.675 185.233 126.048C179.944 124.637 175.361 119.979 172.911 113.526C171.174 108.949 171.167 108.598 172.784 107.413C173.728 106.721 175.834 105.887 177.464 105.559C188.93 103.257 193.741 88.298 185.715 79.902C181.321 75.305 176.397 73.548 168.257 73.672C164.128 73.735 160.469 74.181 160.125 74.664C159.781 75.146 158.309 76.063 156.853 76.702C149.844 79.777 146.081 91.604 148.108 104.19C148.921 109.238 152.007 116.993 154 118.997C154.275 119.274 155.506 120.936 156.736 122.691L158.972 125.882L154.236 126.541C146.436 127.628 133.653 132.345 130.442 135.323C129.744 135.97 127.717 137.616 125.939 138.98C122.184 141.86 111.334 154.137 97.64 171C90.293 180.048 78.621 191.929 74.5 194.555C69.306 197.865 64.002 199.953 58.156 200.99C55.045 201.542 51.33 202.26 49.899 202.585L47.298 203.176L46.748 195.151C46.291 188.489 45.743 186.529 43.52 183.615C38.727 177.331 34.653 175.551 25 175.524C17.283 175.502 16.113 175.763 12.299 178.35C7.86202 181.361 5.58801 184.2 2.87601 190.116C0.0800118 196.213 -0.224998 199.398 1.56 203.858C2.592 206.437 2.95902 209.029 2.53202 210.728C1.53802 214.687 7.06602 224.581 12.601 228.75C14.974 230.538 17.497 232.003 18.208 232.006C18.919 232.01 20.736 232.657 22.247 233.445C23.758 234.233 28.033 235.164 31.747 235.513C42.465 236.52 56.224 231.525 71.5 221.082C78.248 216.469 93.689 204.337 97.971 200.285C99.88 198.478 102.008 197 102.701 197C103.393 197 104.9 198.843 106.049 201.095C109.569 207.995 115.917 213.541 121.953 214.989C132.801 217.591 144.445 214.347 149.65 207.273C155.566 199.233 155.43 185.497 149.375 179.441C146.049 176.116 142.532 175 135.375 175C132.969 175 131 174.716 131 174.368C131 173.259 135.221 166.643 138.714 162.275C140.573 159.951 143.535 157.372 145.297 156.544C148.629 154.978 162.055 152.722 162.917 153.584C163.188 153.855 162.828 155.522 162.117 157.288C158.119 167.223 157.709 179.693 161.147 186.82C165.18 195.18 173.636 207 175.583 207C176.702 207 177.974 199.703 177.991 193.188C178.002 188.972 180.813 180.066 182.899 177.635C185.553 174.544 188.668 173.909 195.68 175.029C204.115 176.376 211.288 179.898 233.827 193.759C247.178 201.97 255.912 205.001 272 207.008C284.019 208.508 298.541 206.111 306.814 201.263C311.45 198.546 320.047 190.394 323.297 185.632C324.285 184.185 325.462 183 325.913 183C326.364 183 328.3 185.012 330.215 187.47C334.017 192.349 344.014 201 345.851 201C346.483 201 347 201.392 347 201.87C347 202.349 349.138 203.318 351.75 204.025C354.362 204.732 356.95 205.634 357.5 206.029C359.332 207.346 374.401 208.002 382 207.096C390.993 206.024 400.394 203.718 404.502 201.576C406.151 200.716 408.063 200.01 408.75 200.006C409.438 200.003 410 199.585 410 199.078C410 198.57 411.575 197.635 413.5 197C415.425 196.365 417 195.43 417 194.922C417 194.415 417.46 194 418.021 194C418.925 194 426.699 189.333 428.001 188.009C428.276 187.729 429.851 186.801 431.501 185.947C433.15 185.093 436.3 183.429 438.5 182.249C447.562 177.388 452.712 175.678 459.68 175.219C466.524 174.768 466.98 174.876 469.431 177.52C472.546 180.881 473.623 184.83 474.488 196.061C475.205 205.364 475.901 207.383 478.08 206.479C479.673 205.818 489 192.617 489 191.024C489 190.461 489.414 190 489.921 190C490.427 190 491.136 188.655 491.497 187.011C491.858 185.368 492.569 183.766 493.077 183.452C494.239 182.734 494.296 167.574 493.145 165.236C492.675 164.281 491.583 161.299 490.719 158.609L489.147 153.719L496.511 154.341C503.877 154.964 508.989 156.989 512.789 160.789C514.842 162.842 521.001 173.222 520.998 174.622C520.996 175.105 518.121 175.54 514.609 175.59C507.813 175.685 505.112 177.045 500.778 182.555C497.74 186.418 497.744 197.887 500.787 203.5C503.752 208.97 504.874 210.198 509.5 213.042C512.977 215.178 514.677 215.498 522.5 215.485C530.089 215.473 532.146 215.103 535.619 213.125C539.783 210.753 546.151 203.251 547.436 199.202C547.82 197.991 548.667 197.012 549.317 197.026C549.968 197.041 556.125 201.561 563 207.071C590.711 229.279 602.791 235.365 619 235.287C624.859 235.259 628.432 234.743 630.5 233.629C632.15 232.74 634.063 232.01 634.75 232.006C635.438 232.003 636 231.58 636 231.067C636 230.554 636.812 229.877 637.804 229.562C638.796 229.247 641.479 227.192 643.765 224.995C646.052 222.798 648.343 221 648.856 221C649.37 221 650.021 219.312 650.304 217.25C650.586 215.188 651.327 209.968 651.949 205.651C652.661 200.712 652.731 197.375 652.138 196.651C651.62 196.018 650.67 193.534 650.027 191.132C648.444 185.211 640.808 177.567 634.868 175.956C629.236 174.43 619.1 175.361 615.141 177.768C613.457 178.792 611.195 180.753 610.116 182.126C607.912 184.928 605 195.107 605 200.011C605 203.009 604.809 203.19 602.25 202.615C600.737 202.275 597.092 201.564 594.15 201.035C588.363 199.994 579 196.154 579 194.822C579 194.37 578.438 193.998 577.75 193.996C575.462 193.988 563.536 181.978 554.5 170.581C552.85 168.5 551.042 166.281 550.481 165.649C549.921 165.017 546.546 160.922 542.981 156.549C528.829 139.189 520.947 133.185 506.312 128.619C503.459 127.728 499.521 127 497.562 127C495.603 127 494 126.709 494 126.354C494 125.998 495.576 123.332 497.503 120.43C503.545 111.327 505.161 106.442 505.143 97.334C505.121 86.371 501.605 79.492 493.94 75.421C490.089 73.375 475.36 72.83 474.168 74.689C473.801 75.262 472.463 76.054 471.195 76.45C469.927 76.846 467.564 78.999 465.945 81.235C463.507 84.6 463 86.279 463 90.983C463 95.972 463.397 97.118 466.25 100.355C468.487 102.894 471.211 104.583 474.988 105.772C481.504 107.823 482.04 109.198 478.833 115.62C476.146 121 470.953 125.64 466.571 126.575C464.882 126.936 463.05 127.568 462.5 127.979C461.95 128.39 459.515 129.03 457.088 129.401C454.661 129.772 449.676 131.554 446.008 133.36L439.341 136.645L435.494 128.6C429.994 117.1 427.052 112.714 422.501 109.231C413.351 102.227 401.705 100.307 390.703 103.989C380.206 107.501 376.168 112.331 373.553 124.5C371.723 133.02 371.763 140.104 373.646 140.721C374.276 140.928 376.076 139.957 377.646 138.564C379.216 137.171 381.017 135.599 381.649 135.07C385.651 131.724 396.842 132.379 400.37 136.166C406.506 142.753 407.845 154.208 403.787 165.397C402.569 168.754 401.107 172.104 400.537 172.842C397.158 177.214 391.751 181.823 387.445 184C383.012 186.241 381.308 186.498 371 186.476C360.326 186.454 359.213 186.265 355.5 183.85C347.451 178.615 344.009 174.151 342.505 167C342.1 165.075 341.357 162.987 340.853 162.359C339.823 161.077 339.373 129.823 340.361 128.224C340.71 127.66 341.637 123.891 342.421 119.849C344.232 110.516 348.248 101.696 352.697 97.285C357.43 92.591 365.197 90.582 369.764 92.87C379.224 97.61 385 99.171 385 96.987C385 94.773 380.91 81.295 379.257 78.065C375.672 71.055 370.192 67.151 355.168 60.901L349.837 58.684L350.649 55.092C352.819 45.494 350.798 38.561 342.385 26.748C340.523 24.134 339 21.584 339 21.081C339 20.578 338.663 20.017 338.25 19.833C337.503 19.502 331.943 9.44101 329.084 3.25001C327.322 -0.565987 325.765 -0.861987 323.833 2.25001Z" fill="#F14334"/>
</svg>
