<!-- icon666.com - MILLIONS vector ICONS FREE --><svg viewBox="-47 0 512 512" xmlns="http://www.w3.org/2000/svg"><path d="m320.078125 46.242188h-279.546875c-22.386719 0-40.53125 18.148437-40.53125 40.53125v384.695312c0 22.386719 18.144531 40.53125 40.53125 40.53125h279.546875c22.382813 0 40.527344-18.144531 40.527344-40.53125v-384.695312c.007812-22.382813-18.144531-40.53125-40.527344-40.53125zm0 0" fill="#c9b77d"></path><path d="m320.078125 46.242188h-276.359375c-.660156 2.90625-1.039062 5.910156-1.039062 9.007812v384.695312c0 22.386719 18.144531 40.53125 40.53125 40.53125h276.355468c.660156-2.902343 1.039063-5.910156 1.039063-9.007812v-384.695312c.007812-22.382813-18.144531-40.53125-40.527344-40.53125zm0 0" fill="#aa9865"></path><path d="m329.027344 0h-230.566406c-22.382813 0-40.527344 18.144531-40.527344 40.53125v384.695312c0 22.382813 18.144531 40.53125 40.527344 40.53125h279.546874c22.386719 0 40.53125-18.148437 40.53125-40.53125v-335.707031zm0 0" fill="#ffeead"></path><g fill="#aa9865"><path d="m356.152344 397.085938h-113.851563c-2.238281 0-4.066406 1.828124-4.066406 4.066406 0 2.238281 1.828125 4.066406 4.066406 4.066406h113.851563c2.238281 0 4.066406-1.828125 4.066406-4.066406 0-2.238282-1.828125-4.066406-4.066406-4.066406zm0 0"></path><path d="m356.152344 365.5625h-113.851563c-2.238281 0-4.066406 1.828125-4.066406 4.066406 0 2.238282 1.828125 4.066406 4.066406 4.066406h113.851563c2.238281 0 4.066406-1.828124 4.066406-4.066406 0-2.238281-1.828125-4.066406-4.066406-4.066406zm0 0"></path><path d="m356.152344 334.039062h-113.851563c-2.238281 0-4.066406 1.828126-4.066406 4.066407 0 2.234375 1.828125 4.0625 4.066406 4.0625h113.851563c2.238281 0 4.066406-1.828125 4.066406-4.0625 0-2.238281-1.828125-4.066407-4.066406-4.066407zm0 0"></path><path d="m356.152344 302.515625h-235.835938c-2.238281 0-4.066406 1.828125-4.066406 4.066406 0 2.234375 1.828125 4.0625 4.066406 4.0625h235.835938c2.238281 0 4.066406-1.828125 4.066406-4.0625 0-2.238281-1.828125-4.066406-4.066406-4.066406zm0 0"></path><path d="m356.152344 270.992188h-235.835938c-2.238281 0-4.066406 1.828124-4.066406 4.0625 0 2.238281 1.828125 4.066406 4.066406 4.066406h235.835938c2.238281 0 4.066406-1.828125 4.066406-4.066406 0-2.230469-1.828125-4.0625-4.066406-4.0625zm0 0"></path><path d="m356.152344 239.46875h-235.835938c-2.238281 0-4.066406 1.828125-4.066406 4.0625 0 2.238281 1.828125 4.066406 4.066406 4.066406h235.835938c2.238281 0 4.066406-1.828125 4.066406-4.066406 0-2.230469-1.828125-4.0625-4.066406-4.0625zm0 0"></path><path d="m356.152344 207.949219h-235.835938c-2.238281 0-4.066406 1.828125-4.066406 4.066406 0 2.234375 1.828125 4.0625 4.066406 4.0625h235.835938c2.238281 0 4.066406-1.828125 4.066406-4.0625 0-2.238281-1.828125-4.066406-4.066406-4.066406zm0 0"></path><path d="m356.152344 176.425781h-235.835938c-2.238281 0-4.066406 1.828125-4.066406 4.066407 0 2.234374 1.828125 4.0625 4.066406 4.0625h235.835938c2.238281 0 4.066406-1.828126 4.066406-4.0625 0-2.238282-1.828125-4.066407-4.066406-4.066407zm0 0"></path><path d="m356.152344 144.902344h-235.835938c-2.238281 0-4.066406 1.828125-4.066406 4.0625 0 2.238281 1.828125 4.066406 4.066406 4.066406h235.835938c2.238281 0 4.066406-1.828125 4.066406-4.066406 0-2.234375-1.828125-4.0625-4.066406-4.0625zm0 0"></path><path d="m356.152344 113.378906h-235.835938c-2.238281 0-4.066406 1.828125-4.066406 4.0625 0 2.238282 1.828125 4.066406 4.066406 4.066406h235.835938c2.238281 0 4.066406-1.828124 4.066406-4.066406 0-2.234375-1.828125-4.0625-4.066406-4.0625zm0 0"></path><path d="m356.152344 81.851562h-235.835938c-2.238281 0-4.066406 1.828126-4.066406 4.066407s1.828125 4.066406 4.066406 4.066406h235.835938c2.238281 0 4.066406-1.828125 4.066406-4.066406s-1.828125-4.066407-4.066406-4.066407zm0 0"></path><path d="m356.152344 50.328125h-235.835938c-2.238281 0-4.066406 1.828125-4.066406 4.066406s1.828125 4.066407 4.066406 4.066407h235.835938c2.238281 0 4.066406-1.828126 4.066406-4.066407s-1.828125-4.066406-4.066406-4.066406zm0 0"></path></g><path d="m197.980469 334.039062h-66.421875c-8.453125 0-15.304688 6.851563-15.304688 15.304688v40.566406c0 8.453125 6.851563 15.300782 15.304688 15.300782h66.421875c8.453125 0 15.304687-6.847657 15.304687-15.300782v-40.566406c0-8.449219-6.851562-15.304688-15.304687-15.304688zm0 0" fill="#e05858"></path><path d="m329.027344 0v48.984375c0 22.382813 18.144531 40.527344 40.527344 40.527344h48.988281zm0 0" fill="#96ceb4"></path></svg>