<svg width="90" height="61" viewBox="0 0 90 61" fill="none" xmlns="http://www.w3.org/2000/svg">
<g clip-path="url(#clip0_679_6410)">
<path d="M15.852 38.0924L12.576 32.94L4.764 21.2375C3.912 20.0175 3.12 18.8448 2.4 17.6959C1.68 16.547 1.104 15.3507 0.66 14.0951C0.216 12.8396 0 11.4419 0 9.89028C0 6.79882 0.816 4.38251 2.448 2.65319C4.08 0.923868 6.528 0.0473633 9.792 0.0473633C12.18 0.0473633 14.112 0.532994 15.576 1.49241C17.052 2.45183 18.132 3.77843 18.804 5.46037C19.476 7.15416 19.812 9.10853 19.812 11.3353V13.0054H13.416V11.4301C13.416 10.3522 13.308 9.35727 13.116 8.45707C12.912 7.55688 12.528 6.83435 11.964 6.27766C11.4 5.72096 10.62 5.43668 9.612 5.43668C8.544 5.43668 7.764 5.80387 7.26 6.55008C6.756 7.2963 6.504 8.36232 6.504 9.75999C6.504 11.0037 6.696 12.1408 7.092 13.1712C7.488 14.2136 7.992 15.2085 8.604 16.1679C9.216 17.1274 9.864 18.1342 10.56 19.1883L19.968 33.5441L22.968 38.0924H15.852Z" fill="#FF6699"/>
<path d="M12.6362 57.648V43.1975H17.7242V44.2517H13.9682V57.648H12.6362Z" fill="#00679D"/>
<path d="M22.4039 57.8731C21.4439 57.8731 20.6999 57.6599 20.1599 57.2453C19.6319 56.8308 19.2599 56.2149 19.0439 55.3976C18.8279 54.5803 18.7319 53.5735 18.7319 52.3772V48.4803C18.7319 47.284 18.8399 46.2772 19.0439 45.4599C19.2599 44.6426 19.6319 44.0267 20.1599 43.6121C20.6879 43.1976 21.4439 42.9844 22.4039 42.9844C23.3879 42.9844 24.1439 43.1976 24.6719 43.6121C25.1999 44.0267 25.5719 44.6426 25.7879 45.4481C26.0039 46.2535 26.0999 47.2721 26.0999 48.4803V52.3772C26.0999 53.5735 25.9919 54.5803 25.7879 55.3976C25.5719 56.2149 25.1999 56.8308 24.6719 57.2453C24.1439 57.6718 23.3879 57.8731 22.4039 57.8731ZM22.4039 56.8782C23.1119 56.8782 23.6399 56.7005 23.9759 56.3452C24.3119 55.9898 24.5279 55.4805 24.6239 54.8053C24.7199 54.142 24.7679 53.3485 24.7679 52.4246V48.4211C24.7679 47.4853 24.7199 46.6918 24.6239 46.0285C24.5279 45.3652 24.3119 44.8677 23.9759 44.5005C23.6399 44.1452 23.1119 43.9675 22.4039 43.9675C21.6959 43.9675 21.1799 44.1452 20.8439 44.5005C20.5199 44.8558 20.3039 45.3652 20.2079 46.0285C20.1119 46.6918 20.0639 47.4853 20.0639 48.4211V52.4246C20.0639 53.3366 20.1119 54.1302 20.2079 54.8053C20.3039 55.4686 20.5079 55.9898 20.8439 56.3452C21.1799 56.7005 21.6959 56.8782 22.4039 56.8782Z" fill="#00679D"/>
<path d="M26.5801 61V56.7241C26.9881 56.5109 27.3361 56.2029 27.6361 55.8121C27.9361 55.4212 28.1881 54.8882 28.3921 54.2012C28.6081 53.5142 28.7881 52.6259 28.9441 51.5361C29.1001 50.4464 29.2441 49.0843 29.3641 47.4734L29.6881 43.1975H35.4841V56.6767H36.7801V61H35.7121L35.6161 57.648H27.7681L27.6361 61H26.5801ZM28.1041 56.6767H34.1761V44.2043H30.8041L30.4801 47.734C30.3481 49.2146 30.2161 50.4701 30.0841 51.5006C29.9521 52.5311 29.8201 53.3721 29.6641 54.0472C29.5081 54.7224 29.3041 55.2672 29.0521 55.6818C28.8121 56.0963 28.4881 56.428 28.1041 56.6767Z" fill="#00679D"/>
<path d="M44.8799 57.873C43.7879 57.873 42.9719 57.6243 42.4439 57.1149C41.9159 56.6056 41.5799 55.9305 41.4119 55.0777C41.2559 54.2248 41.1719 53.2773 41.1719 52.2231V48.8237C41.1719 47.4023 41.2799 46.2652 41.4959 45.4124C41.7119 44.5596 42.0959 43.9318 42.6359 43.5528C43.1759 43.1738 43.9199 42.9724 44.8679 42.9724C45.8759 42.9724 46.6439 43.1738 47.1599 43.5883C47.6759 44.0029 48.0119 44.5596 48.1799 45.2584C48.3479 45.9691 48.4319 46.7627 48.4319 47.6511V48.2314H47.1599V47.6511C47.1599 46.6679 47.0759 45.9099 46.9199 45.3887C46.7639 44.8676 46.5119 44.5004 46.1759 44.2872C45.8399 44.074 45.3959 43.9792 44.8559 43.9792C44.1959 43.9792 43.7039 44.1332 43.3559 44.4412C43.0199 44.7491 42.7919 45.2466 42.6719 45.9336C42.5519 46.6206 42.4919 47.5326 42.4919 48.6815V52.4363C42.4919 53.9998 42.6479 55.1369 42.9599 55.8357C43.2719 56.5345 43.9079 56.8899 44.8679 56.8899C45.5279 56.8899 46.0199 56.7478 46.3439 56.4635C46.6679 56.1792 46.8839 55.741 46.9919 55.1369C47.0879 54.5328 47.1479 53.7629 47.1479 52.8153V52.2705H48.4199V52.7916C48.4199 53.7629 48.3479 54.6276 48.1919 55.3856C48.0359 56.1555 47.7119 56.7596 47.2079 57.2097C46.7279 57.6479 45.9479 57.873 44.8799 57.873Z" fill="#00679D"/>
<path d="M53.6998 57.8731C52.9198 57.8731 52.2598 57.7191 51.6958 57.4112C51.1438 57.1032 50.7118 56.5465 50.4118 55.7411C50.1118 54.9356 49.9678 53.7867 49.9678 52.3061V48.4566C49.9678 46.9405 50.1238 45.7916 50.4238 45.0098C50.7238 44.2281 51.1678 43.6951 51.7318 43.4108C52.2958 43.1265 52.9558 42.9844 53.7238 42.9844C54.6358 42.9844 55.3558 43.1739 55.8718 43.5648C56.3998 43.9438 56.7718 44.5597 56.9878 45.4007C57.2038 46.2417 57.3118 47.3551 57.3118 48.7409V50.103H51.3118V52.4009C51.3118 53.5498 51.3958 54.45 51.5518 55.1015C51.7078 55.7529 51.9718 56.2149 52.3198 56.4754C52.6798 56.7479 53.1238 56.8782 53.6878 56.8782C54.0478 56.8782 54.3958 56.8189 54.7558 56.7005C55.1158 56.582 55.4038 56.3096 55.6438 55.8714C55.8838 55.4331 56.0038 54.758 56.0038 53.8459V52.7681H57.3238V53.7156C57.3238 54.9475 57.0718 55.9543 56.5558 56.7123C56.0278 57.4941 55.0798 57.8731 53.6998 57.8731ZM51.3118 49.2976H55.9918V48.1723C55.9918 47.3077 55.9438 46.5615 55.8478 45.9337C55.7518 45.3059 55.5478 44.8203 55.2238 44.4886C54.8998 44.1452 54.3958 43.9793 53.6998 43.9793C53.1598 43.9793 52.7038 44.0978 52.3438 44.311C51.9838 44.536 51.7198 44.9506 51.5518 45.5665C51.3838 46.1706 51.2998 47.0589 51.2998 48.2079V49.2976H51.3118Z" fill="#00679D"/>
<path d="M58.9922 57.648L59.1242 43.1975H60.1562L63.6842 53.7748L67.2002 43.1975H68.2922L68.3882 57.648H67.2242L67.1762 46.5732L63.9122 56.12H63.4802L60.2402 46.6206L60.1922 57.648H58.9922Z" fill="#00679D"/>
<path d="M70.3081 57.648V43.1975H71.6401V49.0014H71.9401H72.8041C73.8001 49.0014 74.6041 49.1317 75.2161 49.3923C75.8281 49.6528 76.2961 49.9845 76.6201 50.3991C76.9441 50.8136 77.1721 51.2874 77.2921 51.7967C77.4121 52.3179 77.4721 52.8391 77.4721 53.3721C77.4721 53.8932 77.4121 54.4026 77.2801 54.9119C77.1481 55.4212 76.9201 55.8831 76.5961 56.2859C76.2721 56.7004 75.7921 57.0202 75.1681 57.269C74.5441 57.5177 73.7281 57.648 72.7321 57.648H70.3081ZM71.6401 56.7478H72.7321C73.7281 56.7478 74.4721 56.5938 74.9641 56.274C75.4561 55.9542 75.7801 55.5396 75.9481 55.0303C76.1161 54.521 76.2001 53.9643 76.2001 53.3721C76.2001 52.7917 76.1161 52.235 75.9601 51.7138C75.8041 51.1927 75.4801 50.7544 75.0001 50.4109C74.5201 50.0674 73.7761 49.9016 72.7801 49.9016H72.3721H71.6401V56.7478Z" fill="#00679D"/>
<path d="M79.2002 57.648V43.1975H80.3642V55.1725L85.5242 43.1975H86.6402V57.648H85.4762V45.7796L80.3402 57.648H79.2002Z" fill="#00679D"/>
<path d="M15.8522 38.0924L13.1162 33.7928L22.6802 19.1883C23.3642 18.1342 24.0242 17.1274 24.6362 16.1679C25.2482 15.2085 25.7522 14.2136 26.1362 13.1712C26.5322 12.1289 26.7242 10.9918 26.7242 9.75999C26.7242 8.36232 26.4722 7.2963 25.9682 6.55008C25.4642 5.80387 24.6842 5.43668 23.6162 5.43668C22.6082 5.43668 21.8282 5.72096 21.2642 6.27766C20.7002 6.83435 20.3162 7.56872 20.1122 8.45707C19.9082 9.35727 19.8122 10.3404 19.8122 11.4301V13.0054H13.4162V11.3353C13.4162 9.10853 13.7522 7.14232 14.4242 5.46037C15.0962 3.77843 16.1762 2.45183 17.6522 1.49241C19.1282 0.532994 21.0602 0.0473633 23.4362 0.0473633C26.7002 0.0473633 29.1482 0.912024 30.7802 2.65319C32.4122 4.38251 33.2282 6.79882 33.2282 9.90212C33.2282 11.4538 33.0122 12.8514 32.5682 14.107C32.1242 15.3625 31.5482 16.5588 30.8282 17.7078C30.1082 18.8567 29.3282 20.0293 28.4762 21.2375L20.6642 32.94H32.2442V38.0924H15.8522Z" fill="#00679D"/>
<path d="M42.5158 38.6491C40.2838 38.6491 38.4478 38.1872 36.9838 37.2515C35.5198 36.3276 34.4278 35.0365 33.6958 33.3901C32.9638 31.7437 32.5918 29.8604 32.5918 27.7284V11.0511C32.5918 8.84796 32.9398 6.92913 33.6478 5.27087C34.3558 3.61262 35.4358 2.32155 36.8998 1.39767C38.3518 0.461942 40.2238 0 42.5158 0C44.8078 0 46.6798 0.461942 48.1438 1.39767C49.6078 2.32155 50.6878 3.62447 51.3958 5.27087C52.1038 6.92913 52.4518 8.85981 52.4518 11.0511V27.7284C52.4518 29.8604 52.0798 31.7555 51.3478 33.3901C50.6158 35.0365 49.5118 36.3157 48.0598 37.2515C46.5838 38.1872 44.7358 38.6491 42.5158 38.6491ZM42.5158 33.1177C43.4878 33.1177 44.2078 32.8216 44.6758 32.2293C45.1438 31.6371 45.4558 30.9264 45.6118 30.0973C45.7678 29.2563 45.8518 28.439 45.8518 27.6336V11.1458C45.8518 10.2812 45.7798 9.41651 45.6358 8.56369C45.4918 7.71087 45.1918 6.98835 44.7238 6.40796C44.2558 5.81573 43.5118 5.51961 42.5158 5.51961C41.5078 5.51961 40.7758 5.81573 40.3078 6.40796C39.8398 7.00019 39.5278 7.71087 39.3958 8.56369C39.2518 9.41651 39.1798 10.2693 39.1798 11.1458V27.6336C39.1798 28.439 39.2638 29.2563 39.4438 30.0973C39.6118 30.9383 39.9358 31.6489 40.4038 32.2293C40.8598 32.8334 41.5678 33.1177 42.5158 33.1177Z" fill="#00679D"/>
<path d="M52.0078 38.0924V33.5441L61.4278 19.1883C62.1118 18.1342 62.7718 17.1274 63.3838 16.1679C63.9958 15.2085 64.4998 14.2136 64.8838 13.1712C65.2798 12.1289 65.4718 10.9918 65.4718 9.75999C65.4718 8.36232 65.2198 7.2963 64.7158 6.55008C64.2118 5.80387 63.4318 5.43668 62.3638 5.43668C61.3558 5.43668 60.5758 5.72096 60.0118 6.27766C59.4478 6.83435 59.0638 7.56872 58.8598 8.45707C58.6558 9.35727 58.5598 10.3404 58.5598 11.4301V13.0054H52.1638V11.3353C52.1638 9.10853 52.4998 7.14232 53.1718 5.46037C53.8438 3.76659 54.9238 2.45183 56.3998 1.49241C57.8758 0.532994 59.8078 0.0473633 62.1838 0.0473633C65.4478 0.0473633 67.8958 0.912024 69.5278 2.65319C71.1598 4.38251 71.9758 6.79882 71.9758 9.90212C71.9758 11.4538 71.7598 12.8514 71.3158 14.107C70.8718 15.3625 70.2958 16.5588 69.5758 17.7078C68.8558 18.8567 68.0758 20.0293 67.2238 21.2375L59.3998 32.94H70.9798V38.0924H52.0078Z" fill="#00679D"/>
<path d="M80.472 38.0924V28.8536H69.084V23.3695L79.008 0.461914H86.58V23.7367H90V28.8417H86.592V38.0806H80.472V38.0924ZM74.544 23.7367H80.472V7.39104L74.544 23.7367Z" fill="#00679D"/>
</g>
<defs>
<clipPath id="clip0_679_6410">
<rect width="90" height="61" fill="white"/>
</clipPath>
</defs>
</svg>
